<svg width="429" height="106" viewBox="0 0 429 106" fill="none"
    xmlns="http://www.w3.org/2000/svg">
    <path d="M428 53C428 59.7402 422.445 66.4537 411.639 72.7665C400.903 79.0383 385.301 84.7206 365.935 89.5059C327.217 99.0725 273.676 105 214.5 105C155.324 105 101.783 99.0725 63.0655 89.5059C43.6988 84.7206 28.097 79.0383 17.3609 72.7665C6.55451 66.4537 1 59.7402 1 53C1 46.2598 6.55451 39.5463 17.3609 33.2335C28.097 26.9617 43.6988 21.2794 63.0655 16.4941C101.783 6.92751 155.324 1 214.5 1C273.676 1 327.217 6.92751 365.935 16.4941C385.301 21.2794 400.903 26.9617 411.639 33.2335C422.445 39.5463 428 46.2598 428 53Z" stroke="#5E896B" stroke-width="2"/>
</svg>
