<svg width="550" height="130" viewBox="0 0 550 130" fill="none" xmlns="http://www.w3.org/2000/svg">
<path d="M549 65C549 73.3751 541.785 81.6696 527.901 89.428C514.102 97.1395 494.067 104.117 469.224 109.989C419.554 121.729 350.885 129 275 129C199.115 129 130.446 121.729 80.7757 109.989C55.9328 104.117 35.8982 97.1395 22.0987 89.428C8.21526 81.6696 1 73.3751 1 65C1 56.6249 8.21526 48.3304 22.0987 40.572C35.8982 32.8605 55.9328 25.8832 80.7757 20.0112C130.446 8.27108 199.115 1 275 1C350.885 1 419.554 8.27108 469.224 20.0112C494.067 25.8832 514.102 32.8605 527.901 40.572C541.785 48.3304 549 56.6249 549 65Z" stroke="#B07E5B" stroke-width="2"/>
</svg>
