<svg xmlns="http://www.w3.org/2000/svg" width="25" height="25" fill="none" viewBox="0 0 25 25"><g id="Paper Plane" clip-path="url(#clip0_666_170)"><path id="Vector" fill="#333" d="M3.59874 21.8753C3.39154 21.8753 3.19283 21.793 3.04632 21.6464C2.8998 21.4999 2.81749 21.3012 2.81749 21.094V12.5003C2.81752 12.31 2.88699 12.1263 3.01285 11.9836C3.13871 11.8409 3.31231 11.749 3.50109 11.7253L20.0441 9.64402L3.24796 5.34402L5.54406 7.7323C5.68468 7.87761 5.76202 8.07214 5.76202 8.2737V10.1471C5.76202 10.3543 5.67971 10.5531 5.5332 10.6996C5.38669 10.8461 5.18797 10.9284 4.98077 10.9284C4.77357 10.9284 4.57486 10.8461 4.42835 10.6996C4.28183 10.5531 4.19952 10.3543 4.19952 10.1471V8.58855L0.218274 4.44792C0.100427 4.32544 0.0257392 4.16787 0.00553834 3.9991C-0.0146626 3.83034 0.0207256 3.65959 0.106335 3.51275C0.191945 3.36592 0.323106 3.25101 0.479924 3.18545C0.636742 3.11989 0.810662 3.10727 0.975305 3.14948L24.3956 9.14558C24.4753 9.16355 24.5519 9.19558 24.6214 9.23698H24.623C24.7205 9.29562 24.804 9.375 24.8675 9.46951C24.9309 9.56403 24.9728 9.67135 24.9901 9.78386L24.9941 9.81042L24.9964 9.83151C25.0117 9.98735 24.9797 10.1442 24.9046 10.2816C24.8295 10.419 24.7147 10.5306 24.5753 10.6018L3.9714 21.7815C3.85708 21.8438 3.72893 21.8755 3.59874 21.8753ZM4.37999 13.1893V19.7815L20.1972 11.1995L4.37999 13.1893Z"/></g><defs><clipPath id="clip0_666_170"><rect width="25" height="25" fill="#fff"/></clipPath></defs></svg>