<svg width="994" height="629" viewBox="0 0 994 629" fill="none" xmlns="http://www.w3.org/2000/svg">
<path d="M904.288 150.629C905.154 144.731 896.288 139.881 889.608 139.371C886.423 139.137 883.134 139.591 880.125 138.613C873.563 136.422 870.95 128.567 864.652 126.06C859.896 124.172 854.376 125.853 849.811 128.03C845.245 130.207 840.65 132.95 835.498 133.253C831.02 133.528 826.147 131.957 822.286 134.011C819.35 135.54 817.882 138.71 815.137 140.57C812.391 142.43 809.074 142.775 805.8 142.94C802.526 143.105 799.15 143.147 796.17 144.428C793.19 145.71 790.738 148.659 791.355 151.677L904.288 150.629Z" fill="#EBEBEB"/>
<path d="M650.5 480.798C651.689 479.296 600.001 402.789 600.001 402.789L563.007 397.277L524.927 443.992L508.779 436.881L395.743 478.345L316.471 383.539L304.375 395.348L272.608 351.018L252.202 393.447L220.758 466.605L199.487 451.708L140.414 508.11H705.462C705.462 508.11 649.296 482.3 650.5 480.798Z" fill="#F5F5F5"/>
<path d="M855.462 506.773C855.462 506.966 686.716 507.131 478.597 507.131C270.479 507.131 101.674 506.966 101.674 506.773C101.674 506.58 270.406 506.415 478.568 506.415C686.73 506.415 855.462 506.58 855.462 506.773Z" fill="#E0E0E0"/>
<path d="M828.084 527.126C828.084 527.333 791.384 527.498 746.038 527.498C700.691 527.498 663.991 527.333 663.991 527.126C663.991 526.92 700.691 526.768 746.038 526.768C791.384 526.768 828.084 526.933 828.084 527.126Z" fill="#E0E0E0"/>
<path d="M258.97 210.434C260.247 201.822 247.226 194.725 237.537 193.995C232.898 193.636 228.083 194.312 223.679 192.865C214.152 189.751 210.335 178.189 201.043 174.51C194.084 171.754 186.084 174.207 179.331 177.39C172.578 180.573 165.884 184.652 158.397 185.038C151.85 185.424 144.73 183.15 139.005 186.154C134.733 188.386 132.502 193.044 128.568 195.731C124.633 198.418 119.76 198.969 114.915 199.217C110.071 199.465 105.182 199.507 100.837 201.367C96.4917 203.227 92.8804 207.554 93.7906 211.978L258.97 210.434Z" fill="#EBEBEB"/>
<path d="M930.11 353.36C931.211 345.864 919.937 339.691 911.467 339.057C907.43 338.74 903.231 339.332 899.414 338.078C891.12 335.322 887.803 325.304 879.714 322.107C873.666 319.71 866.693 321.846 860.835 324.615C854.978 327.385 849.179 330.872 842.617 331.257C836.922 331.602 830.741 329.618 825.75 332.236C822.036 334.179 820.084 338.202 816.663 340.573C813.243 342.943 808.942 343.329 804.787 343.59C800.633 343.852 796.331 343.839 792.544 345.465C788.757 347.091 785.63 350.853 786.408 354.697L930.11 353.36Z" fill="#F5F5F5"/>
<path d="M652.746 117.984C653.524 112.693 645.568 108.338 639.534 107.884C636.672 107.663 633.662 108.076 631.02 107.195C625.148 105.279 622.828 98.1825 617.118 95.9225C612.846 94.2276 607.928 95.7434 603.788 97.6864C599.649 99.6294 595.553 102.11 590.929 102.385C586.921 102.633 582.546 101.228 579.023 103.074C576.41 104.452 575.03 107.208 572.608 108.958C570.093 110.416 567.181 111.158 564.226 111.094C561.282 111.047 558.355 111.515 555.594 112.472C552.922 113.616 550.706 116.276 551.263 118.976L652.746 117.984Z" fill="#F5F5F5"/>
<path d="M1062.83 626.99C1060.78 588.943 1061.67 602.186 1059.62 564.126L987.362 526.341L922.403 550.318L910.982 567.695C904.036 578.194 894.576 587.026 883.354 593.491C869.467 601.525 850.735 614.161 843.953 626.99H1062.83Z" fill="#E0E0E0"/>
<path d="M45.3025 534.099L119.495 557.18L206.856 626.949H45.3025V534.099Z" fill="#E0E0E0"/>
<path d="M936.833 441.58L952.247 544.641L956.255 544.751C953.701 509.764 950.97 474.032 936.833 441.58Z" fill="#E0E0E0"/>
<path d="M979.64 436.826C968.88 447.85 964.549 463.132 961.819 477.904C957.943 498.85 957.591 523.585 958.751 544.82L964.388 544.944C962.154 508.324 967.329 471.638 979.64 436.826Z" fill="#E0E0E0"/>
<path d="M939.667 502.557C938.419 497.444 937.01 492.249 933.912 487.908C929.714 482.024 922.873 478.263 916.003 475.424C909.132 472.585 901.895 470.215 895.686 466.219C902.615 476.884 918.351 479.723 926.352 489.645C930.345 494.606 932.004 500.834 933.56 506.87C936.966 520.043 939.065 531.44 942.471 544.613H947.021C945.517 530.463 943.06 516.416 939.667 502.557Z" fill="#E0E0E0"/>
<path d="M968.498 544.751C968.498 544.751 972.359 503.824 975.222 496.314C978.084 488.804 1005.14 468.038 1004.88 469.016C1004.61 469.994 984.588 492.704 981.725 497.348C978.862 501.992 973.915 544.751 973.915 544.751H968.498Z" fill="#E0E0E0"/>
<path d="M804.361 537.696C804.051 537.748 803.737 537.771 803.422 537.764L800.765 537.833L790.958 537.944L758.662 538.054L726.366 537.944L716.575 537.833L713.903 537.764C713.593 537.771 713.283 537.748 712.978 537.696C713.282 537.635 713.593 537.612 713.903 537.627H716.575L726.366 537.516L758.662 537.406L790.958 537.516L800.765 537.627H803.422C803.737 537.611 804.053 537.634 804.361 537.696Z" fill="#E0E0E0"/>
<path d="M859.808 558.09C860.754 558.726 861.554 559.535 862.159 560.467C862.765 561.4 863.163 562.438 863.331 563.519C863.655 565.69 863.444 567.901 862.714 569.982C861.104 574.109 858.383 577.773 854.816 580.62C851.69 576.969 851.881 571.539 852.101 568.783C852.526 564.429 856.079 556.809 859.808 558.09Z" fill="#ECEFF1"/>
<path d="M857.826 588.13C857.793 586.908 858.108 585.7 858.738 584.63C859.367 583.559 860.289 582.665 861.408 582.04C862.533 581.426 863.778 581.031 865.069 580.877C866.36 580.723 867.671 580.814 868.924 581.144C869.527 581.226 870.104 581.433 870.612 581.75C871.12 582.067 871.546 582.486 871.86 582.977C872.064 583.471 872.125 584.007 872.034 584.531C871.944 585.054 871.706 585.545 871.346 585.953C870.608 586.754 869.663 587.361 868.601 587.717C865.034 589.095 861.261 589.757 857.885 588.13" fill="#ECEFF1"/>
<path d="M850.677 599.995C850.743 599.71 850.842 599.433 850.97 599.168C851.191 598.589 851.484 597.79 851.851 596.95C852.748 594.47 854.067 592.143 855.756 590.06C857.499 587.984 859.799 586.381 862.421 585.416C863.215 585.134 864.044 584.945 864.887 584.851C865.181 584.851 865.416 584.851 865.577 584.851H865.812C864.683 585.01 863.576 585.282 862.509 585.664C859.954 586.659 857.715 588.253 856.006 590.294C854.346 592.367 853.016 594.656 852.057 597.087C851.66 598.011 851.323 598.755 851.088 599.265C850.966 599.515 850.828 599.759 850.677 599.995Z" fill="#263238"/>
<path d="M857.635 564.084C857.651 564.213 857.651 564.342 857.635 564.47C857.635 564.746 857.591 565.104 857.503 565.545C857.385 566.482 857.194 567.819 856.93 569.486C856.416 572.821 855.638 577.396 854.655 582.453C853.671 587.51 852.673 592.099 851.895 595.324C851.513 596.977 851.19 598.3 850.955 599.21C850.838 599.637 850.735 599.995 850.677 600.257C850.65 600.386 850.605 600.511 850.544 600.629C850.544 600.629 850.544 600.491 850.544 600.243C850.544 599.995 850.676 599.623 850.765 599.182L851.616 595.282C852.321 591.989 853.29 587.441 854.273 582.398C855.257 577.355 856.064 572.752 856.637 569.459C856.93 567.819 857.15 566.496 857.327 565.531C857.4 565.09 857.473 564.732 857.517 564.456C857.54 564.328 857.58 564.203 857.635 564.084Z" fill="#263238"/>
<path d="M850.941 589.577C850.968 587 850.342 584.454 849.114 582.149C847.887 579.844 846.092 577.847 843.88 576.321C842.749 575.549 841.193 574.943 840.019 575.618C838.844 576.293 838.771 577.906 839.035 579.187C839.639 581.865 841.078 584.313 843.17 586.22C845.261 588.127 847.91 589.406 850.779 589.894" fill="#ECEFF1"/>
<path d="M843.733 580.331C843.985 580.465 844.225 580.617 844.452 580.786C844.735 580.966 845.005 581.164 845.26 581.378C845.608 581.647 845.941 581.932 846.258 582.233C846.61 582.577 847.007 582.935 847.388 583.363C847.798 583.801 848.181 584.261 848.533 584.741C849.356 585.886 850.036 587.116 850.559 588.406C851.054 589.681 851.398 591.002 851.587 592.347C851.656 592.937 851.69 593.531 851.69 594.125C851.721 594.639 851.721 595.154 851.69 595.668C851.659 596.089 851.6 596.508 851.513 596.922C851.464 597.242 851.395 597.56 851.308 597.873C851.248 598.136 851.164 598.394 851.058 598.645C850.985 598.645 851.323 597.515 851.455 595.654C851.485 595.145 851.485 594.634 851.455 594.125C851.44 593.544 851.391 592.964 851.308 592.389C851.12 591.066 850.775 589.767 850.28 588.516C849.762 587.273 849.103 586.086 848.313 584.975C847.975 584.496 847.607 584.036 847.212 583.597C846.845 583.17 846.464 582.798 846.126 582.453C844.717 581.048 843.689 580.386 843.733 580.331Z" fill="#263238"/>
<path d="M172.886 625.488L173.503 625.419C172.226 607.505 162.64 588.296 155.681 571.498C148.532 554.204 141.823 536.455 125.543 525.955C143.144 558.344 158.946 591.566 172.886 625.488Z" fill="#455A64"/>
<path d="M184.307 534.43C184.307 534.43 184.307 534.513 184.307 534.664L184.087 535.326L183.177 537.889C182.986 538.44 182.766 539.06 182.516 539.721L181.812 541.94C181.313 543.525 180.681 545.33 180.153 547.355C179.874 548.361 179.566 549.422 179.258 550.525C178.949 551.627 178.7 552.785 178.406 553.984C177.79 556.368 177.29 558.944 176.733 561.659C175.734 567.171 174.868 573.11 174.354 579.463C173.841 585.815 173.811 591.865 173.943 597.377C174.075 600.133 174.149 602.751 174.384 605.19C174.487 606.417 174.545 607.602 174.677 608.732C174.809 609.862 174.927 610.964 175.03 611.997C175.235 614.078 175.558 615.939 175.778 617.592L176.116 619.88C176.248 620.582 176.366 621.258 176.468 621.795C176.659 622.925 176.806 623.821 176.923 624.455L177.026 625.144C177.033 625.222 177.033 625.3 177.026 625.378C177.026 625.378 175.793 620.334 174.721 612.025C174.604 610.992 174.472 609.903 174.34 608.759C174.208 607.615 174.134 606.444 174.017 605.218C173.767 602.765 173.679 600.147 173.547 597.377C173.386 591.865 173.459 585.76 173.929 579.394C174.398 573.028 175.397 566.992 176.351 561.563C176.909 558.807 177.423 556.257 178.054 553.873C178.362 552.675 178.626 551.517 178.935 550.415C179.243 549.312 179.551 548.251 179.845 547.245C180.403 545.22 181.048 543.428 181.562 541.83L182.311 539.625L183.001 537.792C183.412 536.717 183.75 535.863 183.97 535.27C184.087 534.995 184.175 534.774 184.234 534.609L184.307 534.43Z" fill="#455A64"/>
<path d="M181.435 524.511L174.887 546.201C174.229 548.383 175.579 550.653 177.904 551.272L178.878 551.531C181.203 552.149 183.621 550.882 184.28 548.699L190.827 527.009C191.486 524.827 190.135 522.557 187.811 521.939L186.836 521.68C184.512 521.061 182.093 522.329 181.435 524.511Z" fill="#F5F5F5"/>
<path d="M178.89 551.545C178.89 551.545 179.155 551.613 179.669 551.641C180.415 551.697 181.164 551.569 181.841 551.269C182.373 551.043 182.848 550.716 183.238 550.308C183.627 549.899 183.921 549.42 184.102 548.899C184.484 547.659 184.895 546.212 185.379 544.627C186.319 541.444 187.449 537.668 188.697 533.479C189.313 531.384 189.974 529.18 190.664 526.906C190.819 526.348 190.842 525.765 190.73 525.199C190.619 524.632 190.375 524.095 190.018 523.626C189.656 523.143 189.178 522.747 188.623 522.469C188.036 522.2 187.414 522.001 186.774 521.876C185.871 521.648 184.912 521.712 184.052 522.056C183.192 522.401 182.481 523.008 182.032 523.778C181.766 524.306 181.564 524.861 181.43 525.431C180.74 527.705 180.065 529.91 179.434 532.005C178.157 536.139 176.997 539.942 176.028 543.125C175.778 543.91 175.558 544.668 175.338 545.385C175.086 546.031 174.938 546.709 174.898 547.397C174.908 547.944 175.034 548.485 175.268 548.986C175.502 549.488 175.84 549.94 176.263 550.318C176.815 550.789 177.479 551.13 178.201 551.31L178.758 551.476L178.949 551.545H178.744L178.171 551.407C177.427 551.252 176.735 550.926 176.16 550.456C175.71 550.07 175.348 549.602 175.096 549.081C174.844 548.56 174.706 547.996 174.692 547.424C174.73 546.715 174.873 546.015 175.118 545.344C175.323 544.627 175.543 543.869 175.778 543.084C176.733 539.9 177.863 536.194 179.111 531.936C179.727 529.841 180.388 527.636 181.078 525.363C181.215 524.763 181.427 524.18 181.709 523.626C182.04 523.084 182.49 522.614 183.03 522.248C183.591 521.863 184.238 521.601 184.922 521.484C185.606 521.368 186.309 521.398 186.979 521.573C187.642 521.72 188.287 521.933 188.902 522.207C189.487 522.521 189.988 522.954 190.37 523.475C190.762 523.989 191.028 524.577 191.15 525.199C191.272 525.821 191.246 526.46 191.075 527.071C190.385 529.345 189.71 531.55 189.078 533.644L185.673 544.765C185.188 546.349 184.762 547.769 184.337 549.037C184.01 549.924 183.371 550.68 182.525 551.181C181.679 551.682 180.677 551.897 179.683 551.793C179.408 551.746 179.141 551.662 178.89 551.545Z" fill="#263238"/>
<path d="M176.997 625.419C176.395 611.57 176.38 596.33 184.748 584.892C189.489 578.429 196.624 573.758 204.258 570.547C211.995 567.549 220.01 565.224 228.201 563.602C219.143 575.508 198.635 575.646 190.033 587.8C187.449 591.41 186.245 595.696 185.085 599.899C182.663 608.58 180.549 616.82 178.127 625.516" fill="#455A64"/>
<path d="M112.331 576.776H112.537H113.124C113.638 576.845 114.401 576.9 115.37 577.079C118.115 577.514 120.82 578.15 123.459 578.981C127.385 580.211 131.16 581.832 134.718 583.817C136.803 585.003 138.813 586.3 140.737 587.703C142.814 589.232 144.776 590.895 146.609 592.678C148.429 594.454 150.098 596.362 151.6 598.383C152.364 599.334 153.068 600.34 153.685 601.29C154.302 602.241 154.947 603.233 155.491 604.198C157.489 607.597 159.121 611.175 160.364 614.877C161.219 617.366 161.862 619.914 162.287 622.498C162.464 623.407 162.508 624.124 162.566 624.606V625.157C162.566 625.281 162.566 625.35 162.566 625.35V625.171C162.566 625.02 162.566 624.84 162.478 624.62C162.376 624.138 162.317 623.421 162.111 622.525C161.629 619.96 160.947 617.432 160.071 614.96C158.803 611.286 157.155 607.737 155.153 604.363C154.61 603.399 153.964 602.462 153.347 601.483C152.731 600.505 152.026 599.54 151.277 598.59C149.771 596.592 148.108 594.704 146.301 592.94C144.506 591.172 142.584 589.524 140.546 588.006C138.634 586.607 136.639 585.31 134.572 584.121C128.663 580.772 122.166 578.438 115.385 577.231C114.416 577.024 113.667 576.955 113.154 576.858L112.566 576.762L112.331 576.776Z" fill="#455A64"/>
<path d="M97.7772 567.891L97.3382 568.748C96.2912 570.792 97.2076 573.246 99.385 574.229L121.029 583.998C123.207 584.981 125.821 584.121 126.868 582.077L127.307 581.22C128.354 579.176 127.437 576.722 125.26 575.739L103.615 565.97C101.438 564.987 98.8242 565.848 97.7772 567.891Z" fill="#F5F5F5"/>
<path d="M127.32 581.213C127.32 581.213 127.437 580.979 127.555 580.51C127.78 579.644 127.693 578.732 127.308 577.917C126.923 577.102 126.261 576.429 125.426 576.004C124.193 575.425 122.739 574.805 121.169 574.089L110.1 569.114L103.523 566.165C102.967 565.92 102.361 565.794 101.747 565.794C101.133 565.794 100.527 565.92 99.9708 566.165C99.4011 566.427 98.8999 566.803 98.5028 567.268C98.1288 567.767 97.8138 568.303 97.5633 568.866C97.2877 569.401 97.1446 569.987 97.1446 570.582C97.1446 571.176 97.2877 571.762 97.5633 572.297C97.836 572.828 98.2264 573.298 98.7083 573.675C99.2179 574.017 99.77 574.3 100.352 574.516L106.885 577.382L117.983 582.439L120.229 583.459C120.866 583.805 121.553 584.06 122.27 584.217C122.847 584.3 123.437 584.275 124.004 584.143C124.571 584.01 125.104 583.773 125.573 583.445C126.159 583.018 126.627 582.465 126.938 581.833L127.217 581.337C127.246 581.279 127.281 581.224 127.32 581.172C127.329 581.231 127.329 581.291 127.32 581.351L127.085 581.861C126.793 582.526 126.328 583.114 125.734 583.569C125.254 583.923 124.701 584.182 124.11 584.329C123.52 584.476 122.903 584.508 122.299 584.424C121.559 584.276 120.846 584.025 120.185 583.68L117.924 582.674L106.797 577.699C104.712 576.748 102.51 575.77 100.235 574.75C99.6315 574.516 99.0598 574.215 98.5322 573.854C97.999 573.46 97.5633 572.962 97.255 572.394C96.9502 571.808 96.7917 571.165 96.7917 570.513C96.7917 569.861 96.9502 569.218 97.255 568.632C97.5106 568.041 97.8408 567.481 98.2386 566.964C98.8716 566.208 99.7588 565.675 100.756 565.452C101.753 565.229 102.801 565.33 103.729 565.738L110.276 568.701L121.374 573.758C122.945 574.474 124.31 575.136 125.631 575.715C126.16 576.004 126.618 576.394 126.977 576.859C127.336 577.324 127.587 577.854 127.716 578.416C127.925 579.109 127.925 579.844 127.716 580.538C127.624 580.782 127.49 581.01 127.32 581.213Z" fill="#263238"/>
<path d="M967.706 260.359C969.141 260.007 970.631 259.886 972.11 260.001C973.589 259.889 975.077 260.01 976.514 260.359C975.077 260.708 973.589 260.829 972.11 260.717C970.631 260.833 969.141 260.712 967.706 260.359Z" fill="#263238"/>
<path d="M932.503 260.359C938.364 259.881 944.258 259.881 950.119 260.359C944.258 260.838 938.364 260.838 932.503 260.359Z" fill="#263238"/>
<path d="M897.315 260.359C903.176 259.88 909.07 259.88 914.931 260.359C909.07 260.839 903.176 260.839 897.315 260.359Z" fill="#263238"/>
<path d="M862.112 260.359C867.973 259.881 873.867 259.881 879.728 260.359C873.867 260.838 867.973 260.838 862.112 260.359Z" fill="#263238"/>
<path d="M826.924 260.359C832.785 259.88 838.679 259.88 844.54 260.359C838.679 260.839 832.785 260.839 826.924 260.359Z" fill="#263238"/>
<path d="M791.751 259.629C794.689 259.551 797.63 259.624 800.559 259.849C803.504 259.832 806.447 260.003 809.367 260.359C806.447 260.72 803.495 260.789 800.559 260.566C797.594 260.587 794.636 260.272 791.751 259.629Z" fill="#263238"/>
<path d="M760.629 246.262C760.82 246.111 763.257 249.018 767.177 251.678C771.096 254.337 774.752 255.715 774.649 255.936C773.786 255.818 772.952 255.562 772.183 255.178C770.256 254.391 768.425 253.412 766.722 252.257C764.239 250.711 762.157 248.663 760.629 246.262Z" fill="#263238"/>
<path d="M751.014 215.037C751.205 215.037 751.455 218.716 752.056 223.222C752.658 227.728 753.524 231.339 753.26 231.394C752.182 228.808 751.519 226.087 751.293 223.319C750.789 220.584 750.695 217.796 751.014 215.037Z" fill="#263238"/>
<path d="M738.198 184.955C740.384 186.83 742.241 189.015 743.703 191.432C745.369 193.735 746.614 196.282 747.388 198.969C747.182 199.052 745.612 195.662 743.057 191.804C740.503 187.945 738.022 185.093 738.198 184.955Z" fill="#263238"/>
<path d="M709.308 166.807C712.214 167.315 715.017 168.245 717.617 169.563C720.329 170.678 722.843 172.174 725.075 174C724.957 174.179 721.639 172.195 717.294 170.211C712.949 168.226 709.235 167 709.308 166.807Z" fill="#263238"/>
<path d="M674.487 165.539C677.278 164.614 680.205 164.098 683.163 164.009C685.246 163.889 687.334 163.889 689.417 164.009C690.281 163.979 691.145 164.058 691.986 164.244C691.152 164.468 690.284 164.561 689.417 164.519C687.817 164.519 685.629 164.616 683.222 164.795C678.407 165.057 674.531 165.746 674.487 165.539Z" fill="#263238"/>
<path d="M643.909 180.986C645.716 178.78 647.893 176.863 650.353 175.309C652.657 173.558 655.244 172.162 658.016 171.175C658.119 171.368 654.684 173.173 650.808 175.874C646.933 178.575 644.07 181.138 643.909 180.986Z" fill="#263238"/>
<path d="M628.539 210.048C628.764 204.474 630.519 199.049 633.633 194.298C633.838 194.394 632.165 197.715 630.697 202.07C629.229 206.424 628.774 210.076 628.539 210.048Z" fill="#263238"/>
<path d="M627.732 243.065C627.398 240.321 627.314 237.555 627.482 234.797C627.394 232.032 627.565 229.266 627.996 226.529C628.329 229.274 628.413 232.04 628.245 234.797C628.334 237.562 628.162 240.329 627.732 243.065Z" fill="#263238"/>
<path d="M627.232 276.096C626.887 273.353 626.799 270.586 626.968 267.828C626.888 265.063 627.059 262.297 627.482 259.56C627.826 262.304 627.915 265.07 627.746 267.828C627.826 270.593 627.654 273.359 627.232 276.096Z" fill="#263238"/>
<path d="M626.719 309.127C626.383 306.382 626.3 303.616 626.469 300.859C626.381 298.094 626.553 295.327 626.983 292.591C627.317 295.335 627.401 298.101 627.232 300.859C627.322 303.623 627.15 306.39 626.719 309.127Z" fill="#263238"/>
<path d="M617.015 340.269C616.824 340.145 619.041 337.086 621.155 333.007C623.269 328.929 624.428 325.415 624.649 325.47C624.19 328.219 623.237 330.875 621.83 333.324C620.647 335.874 619.02 338.222 617.015 340.269Z" fill="#263238"/>
<path d="M589.417 359.989C589.343 359.796 592.998 358.418 597.226 356.227C601.454 354.036 604.654 351.886 604.787 352.093C602.674 354.038 600.246 355.656 597.593 356.888C595.057 358.316 592.298 359.362 589.417 359.989Z" fill="#263238"/>
<path d="M554.713 363.792C557.635 363.462 560.58 363.347 563.521 363.447H566.942H569.731C570.595 363.38 571.466 363.431 572.314 363.599C571.483 363.841 570.616 363.961 569.745 363.957L566.942 364.15C565.899 364.15 564.74 364.15 563.521 364.15C560.58 364.293 557.63 364.173 554.713 363.792Z" fill="#263238"/>
<path d="M521.463 354.311C521.595 354.132 524.927 356.089 529.317 357.977C533.706 359.865 537.435 361.036 537.376 361.243C534.453 360.789 531.624 359.905 528.994 358.624C526.262 357.559 523.721 356.105 521.463 354.311Z" fill="#263238"/>
<path d="M499.516 329.163C499.737 329.094 501.205 332.525 503.656 336.425C506.108 340.325 508.545 343.218 508.368 343.315C506.206 341.415 504.391 339.194 502.996 336.742C501.397 334.413 500.222 331.852 499.516 329.163Z" fill="#263238"/>
<path d="M496.184 296.504C496.562 299.245 496.69 302.011 496.566 304.772C496.689 307.533 496.562 310.299 496.184 313.04C495.798 310.3 495.67 307.533 495.802 304.772C495.669 302.011 495.797 299.244 496.184 296.504Z" fill="#263238"/>
<path d="M496.184 263.473C496.562 266.214 496.69 268.98 496.566 271.741C496.69 274.503 496.562 277.269 496.184 280.009C495.797 277.269 495.669 274.503 495.802 271.741C495.669 268.98 495.797 266.213 496.184 263.473Z" fill="#263238"/>
<path d="M496.184 230.429C496.561 233.17 496.689 235.936 496.566 238.697C496.69 241.458 496.562 244.224 496.184 246.965C495.797 244.225 495.669 241.458 495.802 238.697C495.67 235.936 495.798 233.169 496.184 230.429Z" fill="#263238"/>
<path d="M496.184 197.398C496.562 200.139 496.69 202.905 496.566 205.666C496.689 208.428 496.561 211.194 496.184 213.934C495.798 211.194 495.67 208.428 495.802 205.666C495.669 202.905 495.797 200.138 496.184 197.398Z" fill="#263238"/>
<path d="M496.184 164.354C496.417 165.144 496.53 165.96 496.522 166.779C496.595 168.268 496.639 170.335 496.639 172.622C496.763 175.383 496.636 178.149 496.257 180.89C495.871 178.15 495.743 175.383 495.876 172.622C495.876 170.335 495.876 168.268 495.978 166.779C495.923 165.966 495.992 165.149 496.184 164.354Z" fill="#263238"/>
<path d="M482.825 134.424C485.052 136.261 486.946 138.425 488.433 140.832C490.117 143.122 491.383 145.66 492.176 148.342C491.956 148.424 490.371 145.034 487.772 141.217C485.174 137.4 482.649 134.562 482.825 134.424Z" fill="#263238"/>
<path d="M453.26 117.35C459.1 118.342 464.623 120.571 469.408 123.868C469.29 124.047 465.884 122.187 461.451 120.409C457.018 118.632 453.201 117.557 453.26 117.35Z" fill="#263238"/>
<path d="M418.38 116.276C421.19 115.402 424.126 114.938 427.085 114.898C429.537 114.774 431.739 114.898 433.339 114.898C434.204 114.866 435.07 114.954 435.908 115.159C435.07 115.363 434.204 115.447 433.339 115.408C431.739 115.49 429.537 115.408 427.129 115.6C422.256 115.89 418.38 116.482 418.38 116.276Z" fill="#263238"/>
<path d="M387.332 130.979C391.274 126.825 396.195 123.593 401.704 121.54C401.806 121.732 398.327 123.455 394.364 126.059C390.4 128.664 387.552 131.13 387.332 130.979Z" fill="#263238"/>
<path d="M371.052 159.6C371.132 156.817 371.718 154.068 372.784 151.47C373.613 148.8 374.924 146.283 376.659 144.029C376.865 144.125 375.045 147.405 373.503 151.704C371.962 156.003 371.272 159.628 371.052 159.6Z" fill="#263238"/>
<path d="M370.45 192.603C370.063 189.863 369.935 187.096 370.068 184.335C369.935 181.574 370.063 178.807 370.45 176.067C370.828 178.808 370.956 181.574 370.832 184.335C370.956 187.096 370.828 189.862 370.45 192.603Z" fill="#263238"/>
<path d="M370.45 225.647C370.063 222.907 369.935 220.141 370.068 217.379C369.936 214.618 370.064 211.851 370.45 209.111C370.827 211.852 370.955 214.618 370.832 217.379C370.956 220.141 370.828 222.907 370.45 225.647Z" fill="#263238"/>
<path d="M369.554 258.637C369.334 258.637 369.995 254.944 370.053 250.369C369.928 247.607 370.061 244.84 370.45 242.101C370.827 244.841 370.95 247.608 370.817 250.369C370.907 253.172 370.48 255.97 369.554 258.637Z" fill="#263238"/>
<path d="M352.32 286.762C352.173 286.596 355.065 284.088 358.192 280.574C361.319 277.061 363.301 273.919 363.506 274.029C360.94 279.066 357.099 283.437 352.32 286.762Z" fill="#263238"/>
<path d="M320.875 300.638C320.875 300.432 324.707 299.77 329.331 298.433C333.955 297.097 337.552 295.677 337.655 295.815C335.15 297.301 332.417 298.416 329.551 299.122C326.761 300.049 323.834 300.561 320.875 300.638Z" fill="#263238"/>
<path d="M285.717 301.782C288.634 301.395 291.58 301.239 294.525 301.313C297.463 301.148 300.411 301.231 303.333 301.561C300.416 301.948 297.47 302.104 294.525 302.03C291.587 302.195 288.639 302.112 285.717 301.782Z" fill="#263238"/>
<path d="M250.529 302.209C253.445 301.814 256.392 301.657 259.337 301.741C262.275 301.583 265.221 301.661 268.145 301.975C265.23 302.379 262.282 302.54 259.337 302.457C256.399 302.606 253.452 302.523 250.529 302.209Z" fill="#263238"/>
<path d="M215.341 302.678C218.256 302.274 221.204 302.112 224.149 302.195C227.087 302.038 230.034 302.121 232.957 302.443C230.041 302.838 227.094 302.995 224.149 302.912C221.211 303.069 218.264 302.991 215.341 302.678Z" fill="#263238"/>
<path d="M180.153 303.16C183.069 302.765 186.016 302.608 188.961 302.691C191.899 302.533 194.846 302.611 197.769 302.926C194.854 303.331 191.906 303.492 188.961 303.408C186.023 303.566 183.076 303.483 180.153 303.16Z" fill="#263238"/>
<path d="M153.641 303.477C155.075 303.114 156.563 302.975 158.045 303.063C159.521 302.932 161.009 303.034 162.449 303.367C161.016 303.736 159.527 303.876 158.045 303.78C156.569 303.927 155.078 303.824 153.641 303.477Z" fill="#263238"/>
<path d="M446.419 94.6547C446.422 93.1428 446.054 91.6506 445.342 90.2942C444.63 88.9378 443.595 87.7539 442.316 86.8346C441.038 85.9153 439.55 85.2853 437.97 84.9939C436.389 84.7024 434.759 84.7572 433.204 85.1541C431.65 85.551 430.215 86.2792 429.009 87.2821C427.804 88.2849 426.861 89.5354 426.255 90.9361C425.649 92.3367 425.395 93.8499 425.513 95.3577C425.632 96.8655 426.12 98.3273 426.938 99.6293C427.349 100.263 427.849 100.718 428.406 101.393L434.528 108.972C434.705 109.189 434.932 109.365 435.193 109.486C435.454 109.607 435.742 109.67 436.033 109.67C436.324 109.67 436.611 109.607 436.872 109.486C437.133 109.365 437.361 109.189 437.537 108.972L443.512 101.545C444.035 100.939 444.525 100.309 444.98 99.6569C445.928 98.1406 446.425 96.413 446.419 94.6547ZM435.996 98.9403C435.084 98.9403 434.193 98.6865 433.435 98.2111C432.677 97.7356 432.086 97.0599 431.737 96.2692C431.388 95.4786 431.297 94.6086 431.475 93.7692C431.653 92.9299 432.092 92.1589 432.737 91.5538C433.381 90.9486 434.203 90.5366 435.097 90.3696C435.991 90.2026 436.918 90.2883 437.76 90.6158C438.602 90.9433 439.322 91.4979 439.829 92.2095C440.335 92.921 440.606 93.7576 440.606 94.6134C440.606 95.761 440.12 96.8615 439.255 97.673C438.391 98.4844 437.218 98.9403 435.996 98.9403Z" fill="#ECEFF1"/>
<path d="M843.249 240.116C843.25 238.606 842.881 237.116 842.169 235.761C841.458 234.406 840.423 233.224 839.146 232.306C837.868 231.387 836.383 230.758 834.804 230.466C833.225 230.174 831.596 230.228 830.043 230.623C828.49 231.018 827.055 231.744 825.85 232.744C824.644 233.745 823.7 234.992 823.092 236.391C822.484 237.789 822.227 239.3 822.342 240.806C822.456 242.313 822.939 243.774 823.754 245.077C824.15 245.711 824.649 246.166 825.222 246.827L831.299 254.379C831.475 254.585 831.698 254.752 831.953 254.867C832.207 254.982 832.485 255.041 832.767 255.041C833.049 255.041 833.327 254.982 833.582 254.867C833.836 254.752 834.059 254.585 834.235 254.379L840.21 246.951C840.732 246.345 841.222 245.715 841.678 245.063C842.662 243.575 843.205 241.867 843.249 240.116ZM832.782 244.388C831.869 244.391 830.977 244.139 830.217 243.666C829.457 243.192 828.864 242.517 828.513 241.727C828.162 240.936 828.068 240.066 828.244 239.226C828.421 238.385 828.858 237.613 829.502 237.006C830.147 236.4 830.968 235.987 831.862 235.818C832.757 235.65 833.685 235.735 834.528 236.062C835.371 236.389 836.092 236.944 836.599 237.656C837.106 238.368 837.377 239.205 837.377 240.061C837.379 240.629 837.261 241.191 837.031 241.716C836.801 242.241 836.463 242.718 836.036 243.12C835.609 243.522 835.102 243.841 834.544 244.058C833.985 244.276 833.386 244.388 832.782 244.388Z" fill="#ECEFF1"/>
<path d="M696.17 142.83C696.175 141.317 695.809 139.824 695.099 138.466C694.389 137.108 693.354 135.923 692.076 135.002C690.798 134.081 689.311 133.45 687.73 133.157C686.149 132.864 684.518 132.917 682.962 133.313C681.407 133.709 679.971 134.437 678.764 135.44C677.558 136.442 676.615 137.693 676.007 139.094C675.4 140.495 675.146 142.009 675.264 143.517C675.383 145.025 675.87 146.488 676.689 147.79C677.086 148.424 677.585 148.879 678.157 149.554L684.235 157.106C684.412 157.323 684.639 157.499 684.9 157.62C685.161 157.741 685.448 157.804 685.74 157.804C686.031 157.804 686.318 157.741 686.579 157.62C686.84 157.499 687.067 157.323 687.244 157.106L693.219 149.678C693.742 149.072 694.232 148.442 694.687 147.79C695.644 146.291 696.156 144.578 696.17 142.83ZM685.718 147.101C684.805 147.104 683.913 146.853 683.153 146.379C682.393 145.905 681.8 145.23 681.448 144.44C681.097 143.649 681.004 142.779 681.18 141.939C681.356 141.099 681.794 140.326 682.438 139.72C683.082 139.113 683.904 138.7 684.798 138.532C685.693 138.364 686.62 138.449 687.463 138.776C688.307 139.103 689.027 139.657 689.534 140.369C690.042 141.081 690.312 141.918 690.312 142.774C690.312 143.92 689.829 145.018 688.967 145.829C688.106 146.64 686.937 147.098 685.718 147.101Z" fill="#455A64"/>
<path d="M264.798 273.602C264.811 271.73 264.362 269.88 263.487 268.197C262.612 266.515 261.334 265.045 259.753 263.903C258.173 262.761 256.332 261.978 254.375 261.615C252.419 261.251 250.399 261.318 248.474 261.808C246.549 262.299 244.772 263.201 243.28 264.444C241.788 265.687 240.623 267.237 239.875 268.973C239.127 270.708 238.817 272.583 238.97 274.45C239.122 276.317 239.732 278.125 240.752 279.734C241.294 280.483 241.877 281.205 242.499 281.897L250 291.24C250.216 291.514 250.497 291.736 250.821 291.889C251.145 292.042 251.502 292.122 251.865 292.122C252.227 292.122 252.585 292.042 252.909 291.889C253.232 291.736 253.513 291.514 253.729 291.24L261.069 282.063C261.743 281.316 262.37 280.534 262.948 279.72C264.136 277.872 264.774 275.76 264.798 273.602ZM251.85 278.893C250.723 278.893 249.622 278.58 248.686 277.992C247.749 277.405 247.019 276.57 246.588 275.593C246.157 274.616 246.044 273.541 246.264 272.504C246.483 271.466 247.026 270.514 247.822 269.766C248.619 269.018 249.634 268.509 250.739 268.303C251.844 268.096 252.989 268.202 254.03 268.607C255.07 269.012 255.96 269.697 256.586 270.576C257.212 271.456 257.546 272.489 257.546 273.547C257.546 274.965 256.946 276.325 255.878 277.327C254.809 278.33 253.361 278.893 251.85 278.893Z" fill="#455A64"/>
<path d="M499.12 235.789C491.084 235.383 483.075 236.951 475.882 240.337C468.204 243.699 460.952 248.674 457.135 255.77C453.318 262.867 453.744 272.306 459.763 277.929C448.195 280.809 439.49 290.468 435.849 301.162C432.209 311.855 432.987 323.485 435.291 334.509C436.392 339.718 438.345 345.533 443.468 347.766C446.756 349.144 450.808 348.868 453.891 350.646C456.974 352.423 458.383 355.675 460.335 358.445C462.201 361.095 464.62 363.361 467.448 365.106C470.275 366.851 473.451 368.037 476.782 368.594C480.113 369.151 483.53 369.066 486.825 368.345C490.12 367.623 493.224 366.281 495.949 364.398L519.672 246.056C515.018 239.937 507.091 236.423 499.12 235.789Z" fill="#455A64"/>
<path d="M515.062 248.536C514.572 249.191 514.027 249.808 513.433 250.382C512.332 251.54 510.732 253.138 508.706 255.205C503.507 260.539 497.676 265.296 491.325 269.385C484.913 273.485 477.577 276.136 469.892 277.129C467.569 277.401 465.223 277.447 462.89 277.267C462.068 277.267 461.422 277.102 460.996 277.047C460.775 277.032 460.557 276.985 460.35 276.909C460.35 276.909 461.275 276.909 462.904 276.992C465.216 277.064 467.53 276.944 469.819 276.633C477.373 275.503 484.57 272.826 490.899 268.792C497.192 264.737 503.031 260.092 508.324 254.93L513.213 250.258C513.779 249.638 514.397 249.062 515.062 248.536Z" fill="#263238"/>
<path d="M468.82 283.992C468.732 283.992 468.351 283.441 468.028 282.394C467.651 280.998 467.576 279.545 467.808 278.122C468.049 276.7 468.599 275.34 469.422 274.126C470.068 273.202 470.626 272.748 470.699 272.748C469.725 274.451 469.008 276.274 468.571 278.163C468.356 280.107 468.44 282.07 468.82 283.992Z" fill="#263238"/>
<path d="M476.806 288.388C476.941 288.591 477.05 288.808 477.129 289.035C477.32 289.463 477.614 290.096 477.922 290.951C478.833 293.32 479.583 295.741 480.168 298.199C482.223 306.355 482.223 314.848 480.168 323.003C477.994 331.165 473.228 338.513 466.501 344.073C464.467 345.732 462.236 347.166 459.851 348.344C459.029 348.785 458.383 349.02 457.884 349.226C457.653 349.33 457.412 349.413 457.165 349.474C457.989 348.972 458.841 348.512 459.719 348.096C462.015 346.84 464.17 345.367 466.149 343.701C472.655 338.11 477.274 330.852 479.434 322.824C481.464 314.781 481.549 306.414 479.684 298.337C479.008 295.223 478.216 292.825 477.702 291.061C477.342 290.189 477.043 289.296 476.806 288.388Z" fill="#263238"/>
<path d="M480.887 307.032C480.278 306.969 479.677 306.845 479.096 306.66C477.951 306.371 476.293 305.985 474.237 305.53C463.542 303.173 452.546 302.245 441.574 302.774C439.475 302.871 437.772 302.981 436.598 303.077C435.988 303.144 435.372 303.144 434.763 303.077C435.349 302.898 435.955 302.783 436.568 302.733C437.728 302.554 439.431 302.374 441.545 302.209C452.574 301.384 463.672 302.316 474.369 304.965C476.425 305.475 478.054 305.943 479.17 306.343C479.771 306.503 480.348 306.735 480.887 307.032Z" fill="#263238"/>
<g opacity="0.3">
<path d="M461.378 276.978C469.364 281.801 480.139 281.25 488.594 277.184C497.05 273.119 503.274 265.582 506.548 257.217C495.494 269.206 479.082 277.901 461.378 276.978Z" fill="#333333"/>
</g>
<g opacity="0.3">
<path d="M457.106 349.447C460.424 349.228 463.65 348.324 466.553 346.8C469.456 345.275 471.965 343.168 473.9 340.628C477.371 335.464 479.475 329.596 480.036 323.513C477.906 328.716 475.21 333.698 471.991 338.382C470.132 340.591 468.009 342.593 465.664 344.348C463.037 346.368 460.158 348.08 457.091 349.447" fill="#333333"/>
</g>
<path d="M465.356 303.477C465.893 304.615 466.244 305.823 466.398 307.06C466.648 308.19 466.927 309.499 467.352 310.959C467.611 311.787 467.611 312.667 467.352 313.495C467.209 313.98 466.9 314.409 466.474 314.714C466.047 315.02 465.526 315.187 464.989 315.19C464.464 315.122 463.971 314.913 463.57 314.587C463.169 314.262 462.876 313.835 462.728 313.357C462.478 312.533 462.478 311.66 462.728 310.835C463.154 309.333 463.609 308.079 463.976 306.963C464.304 305.764 464.751 304.597 465.312 303.477C465.166 304.712 464.89 305.93 464.49 307.115C464.167 308.286 463.8 309.581 463.418 310.973C463.214 311.681 463.214 312.428 463.418 313.137C463.521 313.484 463.726 313.797 464.009 314.04C464.291 314.284 464.641 314.448 465.018 314.515C465.391 314.505 465.751 314.381 466.042 314.162C466.333 313.943 466.541 313.641 466.633 313.302C466.832 312.598 466.832 311.857 466.633 311.152C466.283 309.85 466.014 308.529 465.826 307.197C465.591 304.882 465.356 303.504 465.356 303.477Z" fill="#263238"/>
<path d="M500.104 259.188C498.483 258.426 496.914 257.57 495.406 256.625C491.704 254.461 487.865 252.51 483.911 250.782C479.967 249.063 475.81 247.814 471.536 247.061C468.248 246.496 466.163 246.483 466.163 246.359C466.646 246.269 467.14 246.242 467.631 246.276C468.963 246.282 470.292 246.374 471.61 246.552C475.978 247.17 480.229 248.372 484.234 250.121C488.224 251.853 492.058 253.886 495.7 256.198C497.094 257.066 498.21 257.796 498.973 258.32C499.387 258.564 499.767 258.855 500.104 259.188Z" fill="#263238"/>
<path d="M497.902 258.265C497.99 258.265 498.063 258.733 497.652 259.326C497.373 259.716 496.978 260.021 496.516 260.202C496.054 260.383 495.546 260.433 495.054 260.345L494.569 260.263L494.789 259.835C495.215 259.037 495.958 258.428 496.859 258.141C497.535 257.934 497.975 258.017 497.99 258.141C498.004 258.265 497.608 258.361 497.079 258.65C496.395 259.004 495.838 259.542 495.479 260.194L495.23 259.684C495.597 259.741 495.973 259.713 496.326 259.602C496.679 259.492 496.998 259.302 497.256 259.05C497.652 258.623 497.784 258.251 497.902 258.265Z" fill="#263238"/>
<path d="M621.903 255.619C621.903 255.619 616.031 248.371 616.031 245.435L618.468 228.376C618.468 228.376 619.525 226.653 621.169 229.506C622.637 232.124 621.815 236.175 621.815 236.175L622.843 240.185L625.06 237.154L627.555 225.758C627.555 225.758 629.141 217.49 630.491 218.385C631.842 219.281 632.253 221.637 631.563 225.193C630.873 228.748 629.992 233.254 629.992 233.254C629.992 233.254 629.816 234.632 631.225 232.303C632.635 229.974 634.161 219.998 634.734 218.661C635.306 217.324 635.482 213.769 637.67 213.962C639.857 214.155 638.58 218.688 638.58 218.688L636.495 233.378C636.495 233.378 638.521 227.466 638.903 226.488C639.285 225.51 639.886 222.257 640.62 220.494C641.354 218.73 642.441 217.82 643.395 217.931C643.852 217.955 644.282 218.143 644.595 218.456C644.909 218.768 645.084 219.182 645.083 219.612L641.883 232.179C641.883 232.179 640.107 237.898 640.224 238.27C640.342 238.642 642.588 235.886 642.588 235.886L644.32 231.752C644.32 231.752 645.788 225.978 647.403 225.813C649.017 225.647 649.106 226.819 649.106 226.819L646.39 237.374L641.413 249.418L636.701 258.471C636.701 258.471 630.124 257.507 629.875 257.824C629.625 258.141 621.903 255.619 621.903 255.619Z" fill="#FFBE9D"/>
<path d="M633.559 250.534C633.035 249.687 632.583 248.803 632.209 247.888C631.296 245.745 629.556 244.003 627.335 243.01C626.248 242.564 625.032 242.477 623.885 242.762L623.504 242.859L623.416 242.473C622.99 240.723 622.403 239.11 622.138 238.008C621.897 237.425 621.792 236.8 621.83 236.175C622.136 236.715 622.382 237.283 622.564 237.87C623.174 239.346 623.703 240.85 624.15 242.376L623.665 242.087C624.974 241.726 626.375 241.804 627.629 242.307C628.985 242.839 630.165 243.7 631.049 244.802C631.735 245.686 632.298 246.649 632.723 247.668C633.175 248.571 633.458 249.541 633.559 250.534Z" fill="#EB996E"/>
<path d="M571.052 247.365L603.568 292.99L618.248 253.221L638.242 257.838C638.242 257.838 630.08 311.304 626.968 316.609C623.856 321.915 614.094 329.576 602.012 328.033C589.93 326.49 565.87 296.077 565.87 296.077L571.052 247.365Z" fill="#ECEFF1"/>
<path d="M607.576 311.304C608.306 304.634 606.765 297.918 603.172 292.122C603.937 292.81 604.564 293.623 605.022 294.52C606.298 296.61 607.219 298.874 607.752 301.231C608.306 303.581 608.474 305.998 608.251 308.396C608.21 309.395 607.981 310.379 607.576 311.304Z" fill="#263238"/>
<g opacity="0.3">
<path d="M573.504 305.778C574.566 305.25 575.479 304.492 576.168 303.567C576.857 302.642 577.302 301.577 577.467 300.459C577.782 298.226 577.708 295.959 577.247 293.748C575.94 284.75 574.105 275.379 572.843 266.381L573.357 304.841" fill="#333333"/>
</g>
<g opacity="0.3">
<path d="M607.913 309.085C608.558 308.973 609.164 308.714 609.676 308.329C610.189 307.944 610.592 307.447 610.849 306.88C611.358 305.731 611.535 304.476 611.363 303.243C611.131 300.918 610.274 298.687 608.872 296.759C607.47 294.831 605.569 293.268 603.348 292.219C606.55 297.306 608.12 303.153 607.869 309.058" fill="#333333"/>
</g>
<path d="M608.427 544.627L627.012 584.341L680.154 563.34C677.702 558.71 643.791 561.066 643.791 561.066L632.047 534.099L608.427 544.627Z" fill="#ECEFF1"/>
<g opacity="0.6">
<path d="M628.51 564.36C628.065 564.71 627.773 565.2 627.689 565.739C627.605 566.278 627.735 566.827 628.054 567.281C628.412 567.709 628.93 567.993 629.503 568.075C630.076 568.157 630.66 568.031 631.137 567.722C631.606 567.351 631.912 566.831 631.996 566.261C632.08 565.691 631.936 565.112 631.592 564.635C631.175 564.225 630.604 563.981 630 563.955C629.395 563.93 628.804 564.124 628.348 564.498" fill="white"/>
</g>
<g opacity="0.6">
<path d="M627.012 584.341L625.339 580.207L676.909 561.604C676.909 561.604 679.713 561.604 680.154 563.299L627.012 584.341Z" fill="white"/>
</g>
<path d="M644.79 561.19C644.893 561.439 643.645 562.072 642.72 563.354C641.795 564.635 641.575 565.931 641.252 565.931C640.929 565.931 640.723 564.374 641.883 562.83C643.043 561.287 644.746 560.956 644.79 561.19Z" fill="#263238"/>
<path d="M652.761 560.708C652.937 560.915 651.998 561.769 651.572 563.147C651.146 564.525 651.396 565.724 651.131 565.807C650.867 565.889 650.074 564.594 650.632 562.885C651.19 561.177 652.658 560.474 652.761 560.708Z" fill="#263238"/>
<path d="M658.515 565.517C658.31 565.655 657.4 564.58 657.473 562.996C657.547 561.411 658.515 560.391 658.706 560.543C658.897 560.694 658.486 561.714 658.442 563.023C658.398 564.332 658.765 565.393 658.515 565.517Z" fill="#263238"/>
<path d="M641.384 554.686C641.384 554.948 640.033 555.086 638.609 555.761C637.185 556.436 636.231 557.318 635.996 557.139C635.761 556.96 636.481 555.678 638.169 554.907C639.857 554.135 641.413 554.452 641.384 554.686Z" fill="#263238"/>
<path d="M422.197 583.583L419.921 562.376L438.771 540.093L415.664 526.148L415.048 527.002L403.304 543.649L388.051 554.948L412.273 592.306L435.864 590.817C435.864 590.817 433.75 585.65 422.197 583.583Z" fill="#ECEFF1"/>
<g opacity="0.6">
<path d="M388.022 554.948L412.244 592.306L435.834 590.817L432.943 587.662L413.682 587.882L391.266 552.55L388.022 554.948Z" fill="white"/>
</g>
<path d="M421.316 573.854C421.169 574.088 419.745 573.455 417.925 573.62C416.105 573.785 414.813 574.571 414.622 574.364C414.431 574.157 415.62 572.807 417.852 572.642C420.083 572.476 421.551 573.675 421.316 573.854Z" fill="#263238"/>
<path d="M420.597 568.604C420.362 568.783 419.217 567.543 417.323 567.323C415.429 567.102 413.961 567.998 413.8 567.777C413.638 567.557 413.961 567.295 414.593 566.909C415.45 566.42 416.46 566.221 417.455 566.344C418.451 566.466 419.373 566.903 420.068 567.584C420.567 568.108 420.699 568.535 420.597 568.604Z" fill="#263238"/>
<path d="M420.259 561.824C420.009 561.976 419.114 560.736 417.44 560.308C415.767 559.881 414.314 560.474 414.181 560.24C414.049 560.005 414.387 559.799 415.018 559.537C415.871 559.196 416.822 559.138 417.716 559.371C418.609 559.603 419.392 560.114 419.936 560.818C420.332 561.356 420.376 561.769 420.259 561.824Z" fill="#263238"/>
<path d="M426.204 556.188C425.926 556.299 425.177 555.072 423.65 554.287C422.123 553.501 420.714 553.446 420.611 553.17C420.509 552.895 422.314 552.426 424.164 553.432C426.014 554.438 426.483 556.133 426.204 556.188Z" fill="#263238"/>
<path d="M428.95 551.448C428.832 551.531 427.995 550.69 426.733 549.257C426.014 548.43 425.265 547.59 424.546 546.721C424.047 546.215 423.635 545.639 423.327 545.013C423.225 544.796 423.173 544.561 423.173 544.324C423.173 544.086 423.225 543.852 423.327 543.635C423.447 543.391 423.64 543.186 423.883 543.044C424.125 542.902 424.407 542.829 424.692 542.835C425.536 542.934 426.331 543.259 426.982 543.772C428.555 544.889 429.628 546.515 429.992 548.334C430.307 549.354 430.192 550.45 429.669 551.393C429.593 550.418 429.461 549.447 429.273 548.485C428.989 547.482 428.489 546.544 427.805 545.729C427.403 545.266 426.939 544.854 426.425 544.503C425.934 544.134 425.354 543.883 424.736 543.772C424.647 543.766 424.557 543.785 424.478 543.827C424.4 543.869 424.337 543.931 424.296 544.007C424.222 544.208 424.222 544.426 424.296 544.627C424.571 545.161 424.917 545.661 425.324 546.115C425.999 547.025 426.674 547.906 427.335 548.775C428.03 549.574 428.576 550.478 428.95 551.448Z" fill="#263238"/>
<path d="M429.845 552.054C429.728 552.054 429.742 550.883 430.917 549.477C431.72 548.532 432.831 547.861 434.081 547.567C435.33 547.273 436.648 547.373 437.831 547.851C437.959 547.938 438.065 548.052 438.138 548.184C438.212 548.315 438.253 548.461 438.257 548.609C438.253 548.869 438.172 549.122 438.022 549.34C437.796 549.621 437.529 549.872 437.229 550.084C435.879 551.105 434.28 551.797 432.576 552.096C431.62 552.376 430.595 552.376 429.64 552.096C429.64 551.93 430.755 551.944 432.414 551.489C433.937 551.079 435.352 550.375 436.568 549.422C436.789 549.268 436.986 549.087 437.156 548.885C437.244 548.678 437.156 548.733 437.156 548.678C436.935 548.574 436.696 548.509 436.451 548.485C436.16 548.442 435.865 548.419 435.57 548.416C435.003 548.403 434.438 548.478 433.897 548.637C432.967 548.892 432.123 549.366 431.445 550.015C430.285 551.062 430.007 552.109 429.845 552.054Z" fill="#263238"/>
<g opacity="0.6">
<path d="M406.797 553.102C406.835 553.623 406.706 554.143 406.427 554.595C406.148 555.047 405.733 555.412 405.233 555.641C404.733 555.871 404.171 555.956 403.62 555.885C403.068 555.814 402.552 555.591 402.136 555.244C401.72 554.896 401.424 554.44 401.285 553.935C401.146 553.429 401.17 552.895 401.355 552.402C401.541 551.91 401.878 551.48 402.324 551.167C402.77 550.855 403.305 550.675 403.861 550.649C404.596 550.615 405.315 550.853 405.864 551.311C406.413 551.77 406.748 552.413 406.797 553.102Z" fill="white"/>
</g>
<path d="M531.504 176.067C532.515 171.515 534.257 167.133 536.671 163.072C539.133 158.986 543.117 155.899 547.858 154.405C552.784 153.195 557.974 153.314 562.831 154.749C566.267 155.85 569.401 157.653 572.006 160.027C576.41 163.596 578.656 169.163 580.506 174.331" fill="#ECEFF1"/>
<path d="M583.618 174.689C582.761 169.679 579.893 165.167 575.603 162.08C571.241 159.213 566.096 157.578 560.776 157.367C552.54 156.775 542.91 158.883 537.288 164.533C531.666 170.183 528.348 177.872 529.053 184.762C529.361 187.863 532.561 196.255 535.101 198.28L582.282 197.136C585.101 192.92 584.469 179.636 583.618 174.689Z" fill="#ECEFF1"/>
<path d="M582.796 183.963C582.286 177.83 579.334 172.102 574.526 167.922C569.719 163.741 563.41 161.414 556.856 161.405H555.506C540.943 162.177 533.486 174.207 534.734 187.849L537.288 250.879H570.656L570.362 230.36C570.362 230.36 584.367 228.348 584.558 215.202C584.646 208.863 583.706 195.786 582.796 183.963Z" fill="#FFBE9D"/>
<path d="M570.465 230.346C563.967 230.335 557.609 228.575 552.144 225.275C552.144 225.275 556.431 234.728 570.391 233.543L570.465 230.346Z" fill="#EB996E"/>
<path d="M577.276 194.298C577.277 194.787 577.075 195.257 576.713 195.609C576.352 195.961 575.859 196.168 575.339 196.186C575.084 196.204 574.829 196.175 574.587 196.1C574.345 196.024 574.121 195.904 573.93 195.746C573.738 195.588 573.582 195.395 573.471 195.18C573.36 194.964 573.296 194.73 573.283 194.491C573.283 194.002 573.485 193.532 573.846 193.18C574.208 192.827 574.701 192.621 575.221 192.603C575.475 192.584 575.731 192.613 575.973 192.689C576.215 192.765 576.438 192.885 576.63 193.043C576.822 193.201 576.977 193.393 577.088 193.609C577.2 193.825 577.263 194.059 577.276 194.298Z" fill="#263238"/>
<path d="M579.699 190.385C579.449 190.633 577.937 189.571 575.794 189.571C573.65 189.571 572.065 190.577 571.83 190.329C571.595 190.081 571.962 189.792 572.652 189.323C573.583 188.718 574.69 188.396 575.823 188.4C576.941 188.402 578.03 188.735 578.935 189.351C579.596 189.833 579.86 190.274 579.699 190.385Z" fill="#263238"/>
<path d="M556.592 195.249C556.596 195.737 556.398 196.207 556.039 196.559C555.68 196.912 555.188 197.119 554.669 197.137C554.415 197.153 554.16 197.123 553.919 197.047C553.678 196.97 553.456 196.85 553.264 196.692C553.073 196.534 552.917 196.343 552.806 196.128C552.694 195.913 552.629 195.68 552.614 195.442C552.606 194.952 552.803 194.478 553.162 194.123C553.522 193.767 554.015 193.558 554.537 193.54C554.792 193.523 555.048 193.554 555.29 193.632C555.532 193.709 555.755 193.83 555.947 193.989C556.138 194.149 556.294 194.342 556.404 194.558C556.515 194.774 556.579 195.009 556.592 195.249Z" fill="#263238"/>
<path d="M558.53 191.39C558.295 191.638 556.768 190.577 554.625 190.591C552.482 190.605 550.896 191.597 550.661 191.349C550.427 191.101 550.808 190.798 551.498 190.329C552.427 189.721 553.537 189.403 554.669 189.42C555.786 189.414 556.876 189.742 557.781 190.357C558.427 190.839 558.662 191.28 558.53 191.39Z" fill="#263238"/>
<path d="M566.34 205.708C567.474 205.376 568.647 205.177 569.834 205.115C570.377 205.115 570.89 204.964 570.993 204.619C571.04 204.086 570.912 203.552 570.626 203.09L569.011 199.162C566.765 193.568 565.151 188.965 565.385 188.882C565.62 188.8 567.646 193.265 569.878 198.859C570.421 200.237 570.935 201.615 571.434 202.814C571.776 203.438 571.874 204.155 571.713 204.84C571.633 205.021 571.509 205.183 571.351 205.313C571.193 205.442 571.005 205.535 570.802 205.584C570.502 205.667 570.191 205.708 569.878 205.708C568.703 205.848 567.514 205.848 566.34 205.708Z" fill="#263238"/>
<path d="M559.998 207.086C560.35 207.086 560.35 209.263 562.347 210.82C564.343 212.377 566.824 212.198 566.839 212.446C566.853 212.694 566.296 212.873 565.239 212.901C563.87 212.911 562.541 212.472 561.481 211.661C560.465 210.88 559.817 209.757 559.675 208.533C559.587 207.623 559.836 207.072 559.998 207.086Z" fill="#263238"/>
<path d="M559.646 186.815C559.44 187.367 557.282 187.132 554.772 187.449C552.262 187.766 550.221 188.414 549.869 187.932C549.722 187.697 550.074 187.174 550.882 186.636C551.973 185.975 553.21 185.556 554.5 185.41C555.789 185.265 557.097 185.396 558.324 185.796C559.308 186.126 559.734 186.554 559.646 186.815Z" fill="#263238"/>
<path d="M580.227 184.556C579.816 185.052 577.952 184.748 575.823 184.928C573.694 185.107 571.859 185.617 571.419 185.189C571.213 184.969 571.419 184.487 572.212 183.977C573.265 183.332 574.479 182.956 575.735 182.888C576.982 182.772 578.239 182.972 579.376 183.467C580.095 183.867 580.403 184.308 580.227 184.556Z" fill="#263238"/>
<path d="M536.745 197.578C536.51 197.481 527.144 194.89 527.423 203.875C527.702 212.86 537.259 210.765 537.273 210.476C537.288 210.186 536.745 197.578 536.745 197.578Z" fill="#FFBE9D"/>
<path d="M535.086 207.155C535.086 207.155 534.91 207.265 534.631 207.403C534.236 207.554 533.793 207.554 533.398 207.403C532.767 207.053 532.247 206.552 531.891 205.952C531.535 205.351 531.356 204.672 531.372 203.985C531.325 203.214 531.46 202.442 531.768 201.725C531.849 201.443 532.003 201.184 532.215 200.97C532.428 200.756 532.692 200.595 532.987 200.499C533.177 200.446 533.38 200.457 533.562 200.53C533.745 200.603 533.894 200.733 533.985 200.899C534.117 201.147 534.058 201.326 534.117 201.34C534.176 201.353 534.308 201.188 534.22 200.816C534.162 200.597 534.028 200.403 533.838 200.265C533.566 200.082 533.229 200.007 532.899 200.058C532.509 200.143 532.149 200.321 531.853 200.574C531.557 200.828 531.336 201.148 531.21 201.505C530.822 202.288 530.65 203.151 530.711 204.013C530.686 204.815 530.916 205.606 531.371 206.286C531.825 206.965 532.485 207.503 533.266 207.83C533.517 207.889 533.779 207.895 534.033 207.847C534.287 207.8 534.526 207.699 534.734 207.554C535.071 207.375 535.115 207.168 535.086 207.155Z" fill="#EB996E"/>
<path d="M543.028 170.872L547.755 167.041L562.787 169.204L573.357 166.655L576.131 169.508C574.942 171.01 577.467 164.602 575.06 162.893C569.878 159.2 565.503 159.338 558.912 159.228C552.32 159.118 539.167 166.559 534.455 170.775C530.682 174.152 530.711 177.059 530.711 177.059C530.109 181.923 533.001 187.435 534.146 192.217C534.748 194.67 535.893 202.111 535.893 202.111C538.095 202.111 538.829 200.471 538.58 198.432L538.169 190.426C540.374 188.795 541.951 186.533 542.661 183.983C543.371 181.434 543.175 178.736 542.103 176.301C541.604 175.585 540.386 172.25 543.028 170.872Z" fill="#263238"/>
<path d="M541.075 173.022C541.586 171.762 542.505 170.684 543.704 169.942C544.903 169.2 546.32 168.831 547.755 168.888C550.631 169.064 553.337 170.226 555.359 172.153C555.873 172.673 556.45 173.135 557.077 173.531C557.391 173.714 557.749 173.82 558.119 173.839C558.488 173.858 558.856 173.79 559.191 173.642C559.396 173.545 559.602 173.394 559.822 173.449C559.974 173.507 560.099 173.615 560.174 173.752C560.718 174.578 561.482 175.257 562.391 175.722C562.848 175.943 563.368 176.023 563.876 175.952C564.385 175.88 564.856 175.66 565.224 175.323C565.75 175.776 566.405 176.075 567.108 176.183C567.812 176.292 568.535 176.206 569.187 175.936C569.84 175.665 570.394 175.222 570.783 174.66C571.171 174.099 571.377 173.443 571.375 172.774C572.02 172.899 572.691 172.849 573.307 172.629C573.923 172.41 574.46 172.029 574.854 171.533C575.55 170.793 576.062 169.918 576.354 168.97C576.646 168.022 576.709 167.024 576.541 166.05C576.372 165.076 575.976 164.149 575.379 163.336C574.783 162.524 574.002 161.845 573.093 161.35C571.649 160.662 570.08 160.236 568.468 160.096C565.958 159.766 563.428 159.586 560.893 159.559C559.778 159.501 558.66 159.627 557.59 159.931C556.122 160.427 554.919 161.543 553.392 161.722C552.391 161.765 551.392 161.614 550.456 161.281C549.102 160.843 547.673 160.647 546.243 160.702C543.439 160.937 541.119 162.824 539.27 164.836C537.873 166.164 536.862 167.805 536.334 169.604C536.088 170.507 536.134 171.459 536.466 172.337C536.798 173.215 537.401 173.981 538.198 174.537C538.521 174.745 538.891 174.878 539.279 174.926C539.666 174.974 540.061 174.935 540.43 174.813C540.608 174.744 540.77 174.642 540.907 174.513C541.043 174.385 541.152 174.233 541.225 174.065C541.299 173.897 541.337 173.717 541.336 173.536C541.335 173.355 541.297 173.175 541.222 173.008" fill="#263238"/>
<path d="M534.455 193.581C533.427 186.691 534.66 178.423 539.989 172.539C545.318 166.655 554.743 163.059 560.982 164.175C565.841 165.043 576.41 165.401 580.271 174.951L579.728 167.069C579.728 167.069 575.03 158.112 561.158 158.387C547.285 158.663 541.237 160.179 534.528 167.84C532.291 170.175 530.758 173.027 530.084 176.103C529.411 179.179 529.622 182.367 530.697 185.341C531.665 188.194 532.924 190.954 534.455 193.581Z" fill="#ECEFF1"/>
<path d="M572.667 160.33C572.49 160.293 572.317 160.237 572.153 160.165C571.83 160.055 571.36 159.862 570.685 159.669C568.918 159.07 567.101 158.609 565.253 158.291C562.519 157.862 559.743 157.71 556.974 157.836C553.585 157.985 550.24 158.612 547.05 159.696C543.864 160.832 540.891 162.437 538.242 164.45C537.094 165.329 536.038 166.307 535.086 167.372C534.616 167.854 534.235 168.364 533.838 168.846C533.442 169.328 533.104 169.811 532.811 170.293C531.83 171.791 531.004 173.374 530.344 175.02C530.095 175.585 529.948 176.053 529.831 176.398C529.783 176.561 529.714 176.718 529.625 176.866L529.757 176.384C529.875 176.067 529.992 175.598 530.227 175.006C530.84 173.334 531.637 171.727 532.605 170.21C532.899 169.728 533.266 169.246 533.618 168.736C533.97 168.226 534.396 167.716 534.866 167.22C535.831 166.145 536.897 165.153 538.051 164.257C540.691 162.214 543.665 160.586 546.859 159.434C550.08 158.336 553.462 157.713 556.886 157.588C559.677 157.46 562.475 157.636 565.224 158.112C567.074 158.422 568.891 158.883 570.656 159.49C571.287 159.71 571.742 159.93 572.124 160.055L572.667 160.33Z" fill="#263238"/>
<path d="M535.38 182.047C535.228 182.009 535.085 181.949 534.954 181.868C534.587 181.656 534.238 181.416 533.912 181.152C532.829 180.27 532 179.146 531.502 177.884C531.004 176.622 530.854 175.262 531.064 173.931C531.13 173.533 531.233 173.141 531.372 172.76C531.475 172.484 531.548 172.346 531.563 172.36C531.577 172.374 531.401 172.966 531.299 173.959C531.168 175.251 531.343 176.554 531.812 177.776C532.3 178.991 533.073 180.089 534.073 180.986C534.836 181.675 535.409 182.006 535.38 182.047Z" fill="#263238"/>
<path d="M539.431 174.165C538.973 173.978 538.563 173.7 538.228 173.352C537.355 172.552 536.696 171.57 536.304 170.486C535.898 169.403 535.802 168.239 536.026 167.11C536.08 166.623 536.245 166.153 536.51 165.732C536.51 165.732 536.378 166.256 536.246 167.11C536.11 168.202 536.236 169.308 536.613 170.348C537 171.37 537.604 172.308 538.389 173.104C538.991 173.821 539.461 174.124 539.431 174.165Z" fill="#263238"/>
<path d="M545.993 168.419C545.616 168.257 545.273 168.033 544.98 167.758C544.226 167.129 543.6 166.377 543.131 165.539C542.669 164.681 542.404 163.743 542.353 162.783C542.299 162.395 542.334 162 542.455 161.625C542.529 162.916 542.858 164.182 543.424 165.36C544.126 166.486 544.99 167.516 545.993 168.419Z" fill="#263238"/>
<path d="M552.32 158.25C552.579 158.499 552.784 158.794 552.922 159.118C553.332 159.853 553.652 160.63 553.876 161.433C554.095 162.24 554.223 163.067 554.258 163.899C554.292 164.246 554.262 164.596 554.17 164.933C554.067 164.933 554.067 163.362 553.553 161.515C553.04 159.669 552.232 158.291 552.32 158.25Z" fill="#263238"/>
<path d="M564.505 158.029C564.733 158.302 564.898 158.616 564.989 158.952C565.265 159.748 565.379 160.584 565.327 161.419C565.282 162.253 565.068 163.072 564.696 163.83C564.567 164.159 564.362 164.456 564.094 164.699C564.577 163.652 564.884 162.541 565.004 161.405C565.018 160.263 564.85 159.125 564.505 158.029Z" fill="#263238"/>
<path d="M572.329 160.096C572.606 160.367 572.826 160.685 572.975 161.033C573.38 161.865 573.605 162.764 573.636 163.679C573.665 164.589 573.49 165.495 573.122 166.338C573 166.699 572.8 167.032 572.535 167.317C573.016 166.156 573.275 164.924 573.298 163.679C573.205 162.44 572.877 161.226 572.329 160.096Z" fill="#263238"/>
<path d="M579.86 166.283C579.986 166.561 580.041 166.863 580.021 167.165C580.077 168.639 579.555 170.08 578.553 171.216C578.157 171.644 577.849 171.837 577.834 171.809C578.469 171.009 578.996 170.139 579.405 169.218C579.688 168.262 579.841 167.276 579.86 166.283Z" fill="#263238"/>
<path d="M583.662 173.986C583.661 174.753 583.393 175.498 582.899 176.108C582.501 176.774 581.875 177.294 581.122 177.583C581.648 177.061 582.138 176.509 582.59 175.929C583.339 175.006 583.559 173.972 583.662 173.986Z" fill="#263238"/>
<path d="M584.176 182.654C584.249 182.654 584.176 183.191 583.662 183.605C583.148 184.018 582.605 184.059 582.605 183.977C582.605 183.894 583.031 183.729 583.442 183.37C583.853 183.012 584.073 182.626 584.176 182.654Z" fill="#263238"/>
<path d="M534.352 189.806C533.261 189.663 532.22 189.285 531.311 188.702C530.402 188.118 529.649 187.345 529.111 186.443C530.523 187.966 532.328 189.124 534.352 189.806Z" fill="#263238"/>
<path d="M535.159 194.146C535.159 194.215 534.69 194.67 533.838 194.711C532.987 194.753 532.37 194.367 532.458 194.298C532.546 194.229 533.075 194.449 533.823 194.394C534.572 194.339 535.115 194.077 535.159 194.146Z" fill="#263238"/>
<g opacity="0.3">
<path d="M571.522 160.027C568.521 158.179 565.156 156.916 561.626 156.312C558.095 155.709 554.471 155.777 550.97 156.513C547.438 157.36 544.12 158.857 541.209 160.918C538.299 162.978 535.853 165.561 534.014 168.516C534.014 168.516 542.661 158.249 555.051 157.891C567.441 157.533 571.522 160.027 571.522 160.027Z" fill="#333333"/>
</g>
<path d="M561.95 194.629C561.893 194.086 561.8 193.548 561.671 193.016C561.26 191.574 560.345 190.303 559.073 189.406C558.209 188.792 557.203 188.377 556.137 188.193C554.908 187.983 553.642 188.083 552.467 188.483C551.174 188.93 550.05 189.726 549.238 190.77C548.361 191.891 547.888 193.245 547.888 194.636C547.888 196.026 548.361 197.38 549.238 198.501C550.05 199.546 551.174 200.341 552.467 200.788C553.566 201.163 554.746 201.275 555.902 201.114C557.058 200.952 558.153 200.523 559.088 199.865C560.358 198.966 561.272 197.696 561.686 196.255C561.817 195.719 561.91 195.176 561.965 194.629C562.007 195.184 561.952 195.743 561.804 196.282C561.436 197.777 560.528 199.106 559.235 200.044C558.335 200.686 557.29 201.125 556.181 201.326C554.906 201.561 553.586 201.466 552.364 201.05C551.701 200.834 551.077 200.522 550.515 200.127C549.929 199.744 549.409 199.28 548.973 198.749C548.05 197.579 547.551 196.161 547.551 194.704C547.551 193.248 548.05 191.83 548.973 190.66C549.403 190.105 549.923 189.617 550.515 189.213C551.077 188.818 551.701 188.506 552.364 188.29C553.507 187.897 554.736 187.784 555.938 187.96C557.14 188.136 558.274 188.596 559.235 189.296C560.528 190.234 561.436 191.563 561.804 193.058C561.939 193.571 561.989 194.101 561.95 194.629Z" fill="#455A64"/>
<path d="M583.266 193.843C583.266 193.843 583.266 193.251 582.972 192.231C582.561 190.788 581.646 189.517 580.374 188.62C579.511 188.004 578.505 187.588 577.438 187.408C576.209 187.198 574.942 187.298 573.768 187.697C573.137 187.913 572.544 188.215 572.006 188.593C571.134 189.204 570.427 189.997 569.939 190.909C569.451 191.822 569.197 192.829 569.197 193.85C569.197 194.871 569.451 195.878 569.939 196.791C570.427 197.703 571.134 198.496 572.006 199.107C572.544 199.485 573.137 199.787 573.768 200.003C574.866 200.377 576.047 200.489 577.203 200.328C578.359 200.167 579.454 199.738 580.388 199.079C581.658 198.181 582.573 196.91 582.987 195.469C583.266 194.449 583.222 193.843 583.28 193.843C583.312 194.399 583.258 194.956 583.119 195.497C582.738 196.99 581.827 198.317 580.535 199.259C579.636 199.901 578.591 200.339 577.482 200.54C576.207 200.776 574.887 200.68 573.665 200.265C573.003 200.045 572.379 199.734 571.815 199.341C571.044 198.812 570.392 198.145 569.897 197.379C569.401 196.612 569.072 195.761 568.929 194.875C568.786 193.988 568.831 193.084 569.062 192.214C569.293 191.344 569.705 190.525 570.274 189.806C571.128 188.716 572.309 187.891 573.665 187.435C574.807 187.043 576.037 186.929 577.239 187.105C578.44 187.281 579.575 187.741 580.535 188.441C581.827 189.383 582.738 190.71 583.119 192.203C583.253 192.74 583.302 193.293 583.266 193.843Z" fill="#455A64"/>
<path d="M569.246 191.294C569.246 191.294 568.835 191.032 568.131 190.715C567.209 190.279 566.18 190.078 565.149 190.134C564.118 190.189 563.121 190.499 562.259 191.032C561.583 191.432 561.246 191.776 561.216 191.735C561.438 191.375 561.75 191.072 562.127 190.853C562.979 190.253 563.999 189.898 565.063 189.833C566.139 189.779 567.21 190.018 568.145 190.522C568.572 190.694 568.949 190.959 569.246 191.294Z" fill="#455A64"/>
<path d="M548.181 193.388C548.181 193.471 545.347 194.381 541.78 195.428C538.213 196.475 535.306 197.233 535.292 197.164C535.277 197.095 538.125 196.172 541.677 195.125C545.23 194.077 548.151 193.306 548.181 193.388Z" fill="#455A64"/>
<path d="M554.566 200.182C554.144 200.213 553.719 200.161 553.319 200.03C552.341 199.768 551.441 199.297 550.691 198.652C549.937 197.995 549.354 197.184 548.988 196.282C548.817 195.918 548.731 195.523 548.738 195.125C548.916 195.475 549.073 195.833 549.208 196.2C550.056 197.879 551.575 199.176 553.436 199.81C553.819 199.915 554.197 200.039 554.566 200.182Z" fill="white"/>
<path d="M572.036 197.991C572.036 197.991 571.58 197.908 571.081 197.398C570.475 196.726 570.074 195.911 569.922 195.042C569.732 194.183 569.732 193.297 569.922 192.438C569.977 192.079 570.135 191.741 570.377 191.459C570.377 191.459 570.259 191.845 570.142 192.493C570.004 193.319 570.004 194.161 570.142 194.987C570.292 195.807 570.639 196.584 571.155 197.261C571.428 197.525 571.723 197.769 572.036 197.991Z" fill="white"/>
<path d="M561.716 207.554C561.716 207.485 561.921 207.141 562.332 206.769C562.743 206.397 563.095 206.135 563.169 206.204C563.242 206.273 562.963 206.617 562.552 206.989C562.141 207.361 561.789 207.609 561.716 207.554Z" fill="#263238"/>
<path d="M562.743 208.147C562.743 208.147 562.949 207.665 563.345 207.196C563.741 206.727 564.123 206.369 564.182 206.424C564.24 206.479 563.991 206.907 563.595 207.375C563.198 207.844 562.816 208.202 562.743 208.147Z" fill="#263238"/>
<path d="M563.8 208.877C563.712 208.877 563.888 208.395 564.167 207.885C564.446 207.375 564.754 207.003 564.842 207.031C564.93 207.058 564.754 207.527 564.461 208.037C564.167 208.547 563.873 208.919 563.8 208.877Z" fill="#263238"/>
<path d="M565.4 208.891C565.312 208.891 565.268 208.574 565.297 208.202C565.327 207.83 565.429 207.527 565.517 207.527C565.604 207.527 565.648 207.844 565.619 208.216C565.59 208.588 565.502 208.891 565.4 208.891Z" fill="#263238"/>
<path d="M566.941 209.125C566.839 209.125 566.765 208.85 566.765 208.519C566.765 208.188 566.839 207.899 566.941 207.899C567.043 207.899 567.102 208.174 567.102 208.519C567.102 208.863 567.029 209.125 566.941 209.125Z" fill="#263238"/>
<path d="M568.38 209.249C568.292 209.249 568.131 208.932 568.013 208.491C567.896 208.05 567.896 207.665 568.013 207.651C568.131 207.637 568.263 207.982 568.366 208.422C568.468 208.863 568.468 209.235 568.38 209.249Z" fill="#263238"/>
<path d="M535.291 210.834C535.359 211.376 535.207 211.922 534.866 212.364C534.699 212.625 534.473 212.85 534.204 213.021C533.936 213.192 533.63 213.307 533.31 213.356C532.912 213.405 532.508 213.351 532.141 213.201C531.773 213.05 531.457 212.808 531.225 212.501C530.997 212.201 530.835 211.861 530.749 211.502C530.664 211.142 530.656 210.769 530.726 210.407C530.876 209.815 531.259 209.298 531.798 208.96C532.026 208.793 532.289 208.674 532.57 208.609C532.851 208.545 533.143 208.538 533.427 208.588C532.901 208.671 532.401 208.859 531.959 209.139C531.488 209.479 531.164 209.969 531.049 210.517C530.947 211.171 531.115 211.836 531.519 212.377C531.72 212.639 531.992 212.847 532.307 212.977C532.621 213.108 532.968 213.158 533.31 213.121C533.589 213.085 533.857 212.992 534.096 212.849C534.334 212.707 534.536 212.517 534.69 212.295C534.988 211.848 535.192 211.352 535.291 210.834Z" fill="#263238"/>
<path d="M515.518 413.4C517.294 413.4 590.635 485.056 590.635 490.03C590.635 495.005 601.528 545.481 606.783 553.253C612.038 561.025 615.195 559.206 615.195 559.206L639.578 548.54C639.578 548.54 626.073 469.994 623.107 461.161C620.142 452.328 564.211 382.863 564.211 382.863L511.363 392.303L515.518 413.4Z" fill="#263238"/>
<path d="M488.433 377.572L473.195 465.902C473.195 465.902 425.529 510.701 422.564 515.689C422.564 515.689 417.25 514.021 415.473 518.445C414.056 522.607 412.952 526.857 412.17 531.164L435.834 549.822C435.834 549.822 498.357 501.165 504.273 493.944C510.189 486.723 534.968 439.113 539.71 426.904C544.452 414.695 549.986 387.618 549.986 387.618L488.433 377.572Z" fill="#263238"/>
<path d="M602.922 474.032C602.717 474.995 602.361 475.923 601.865 476.788C600.817 478.941 599.559 480.998 598.107 482.934C596.673 484.89 595.02 486.697 593.175 488.322C592.448 489.041 591.587 489.63 590.635 490.058C591.306 489.317 592.027 488.618 592.793 487.963C594.493 486.235 596.059 484.392 597.476 482.451C600.852 478.042 602.702 473.908 602.922 474.032Z" fill="#455A64"/>
<path d="M481.739 472.02C479.866 471.899 478.094 471.179 476.718 469.981C475.201 468.972 474.085 467.517 473.547 465.847C474.686 467.123 475.907 468.334 477.203 469.471C478.657 470.407 480.172 471.259 481.739 472.02Z" fill="#455A64"/>
<path d="M432.546 527.223C430.156 526.08 428.092 524.416 426.526 522.371C424.961 520.326 423.939 517.96 423.547 515.468C424.539 517.726 425.748 519.893 427.159 521.945C428.769 523.863 430.574 525.63 432.546 527.223Z" fill="#455A64"/>
<path d="M508.104 390.635C508.056 390.979 507.952 391.314 507.796 391.628C507.45 392.508 507.038 393.365 506.563 394.191C503.401 399.715 498.393 404.112 492.308 406.703C491.401 407.097 490.463 407.428 489.505 407.695C489.165 407.829 488.801 407.903 488.433 407.916C488.433 407.791 489.901 407.309 492.074 406.248C494.958 404.856 497.625 403.099 500.001 401.026C502.364 398.935 504.414 396.552 506.093 393.943C507.37 391.931 507.928 390.58 508.104 390.635Z" fill="#455A64"/>
<path d="M545.479 413.207C545.264 413.978 544.989 414.733 544.657 415.467C544.011 417.01 543.189 419.05 542.147 421.53C539.974 426.615 536.921 433.643 533.266 441.291C529.61 448.939 526.043 455.76 523.43 460.665L520.289 466.453C519.931 467.176 519.513 467.871 519.041 468.534C519.31 467.777 519.639 467.04 520.024 466.329L522.96 460.445C525.456 455.47 528.935 448.635 532.576 441.001C536.216 433.367 539.358 426.381 541.648 421.323C542.778 418.898 543.703 416.886 544.393 415.357C544.697 414.615 545.06 413.897 545.479 413.207Z" fill="#455A64"/>
<path d="M532.62 234.122C532.62 234.122 516.472 240.227 512.728 250.879C510.82 256.267 499.693 295.664 499.693 295.664C499.693 295.664 485.013 371.316 487.038 378.523L571.052 390.635C573.133 388.269 574.182 385.251 573.988 382.188L572.623 359.52L573.606 262.357C573.619 261.633 573.565 260.909 573.445 260.194L570.509 242.28L571.448 234.549L533.794 225.207L532.62 234.122Z" fill="#ECEFF1"/>
<path d="M530.359 228.031C530.461 227.428 530.696 226.851 531.05 226.339C531.404 225.826 531.868 225.388 532.413 225.055C532.958 224.721 533.572 224.498 534.214 224.401C534.857 224.304 535.514 224.334 536.143 224.49L570.568 233.02C571.603 233.278 572.513 233.862 573.144 234.675C573.774 235.488 574.088 236.48 574.032 237.484L573.944 238.862C573.902 239.523 573.7 240.166 573.355 240.743C573.009 241.32 572.528 241.816 571.948 242.193C571.369 242.57 570.705 242.818 570.008 242.919C569.311 243.02 568.599 242.971 567.925 242.776L533.589 232.882C532.517 232.576 531.6 231.916 531.006 231.024C530.413 230.133 530.183 229.07 530.359 228.031Z" fill="#ECEFF1"/>
<path d="M571.052 242.39C570.445 242.341 569.845 242.235 569.261 242.073L564.49 240.943C560.453 239.951 554.904 238.546 548.797 236.947L540.606 234.77C539.577 234.619 538.561 234.398 537.567 234.108C537.094 233.968 536.636 233.783 536.202 233.557C535.966 233.445 535.753 233.296 535.57 233.116C535.413 232.932 535.275 232.733 535.159 232.524C534.807 231.766 534.695 230.928 534.836 230.112C534.934 229.434 535.126 228.772 535.409 228.142C535.791 227.257 536.327 226.437 536.994 225.716C537.479 225.234 537.802 225.041 537.816 225.069C536.961 226.032 536.281 227.121 535.805 228.293C535.239 229.561 535.197 230.981 535.688 232.276C536.011 232.965 536.862 233.226 537.772 233.516C538.733 233.784 539.715 233.982 540.708 234.108L548.915 236.231C555.021 237.829 560.556 239.317 564.549 240.365L569.261 241.743C569.879 241.904 570.479 242.121 571.052 242.39Z" fill="#263238"/>
<path d="M571.39 247.902C571.471 248.134 571.52 248.375 571.536 248.619C571.61 249.17 571.698 249.845 571.801 250.672C572.006 252.463 572.27 255.054 572.52 258.265C573.063 264.686 573.606 273.56 573.915 283.372C574.223 293.183 574.193 302.085 573.915 308.52C573.812 311.731 573.665 314.335 573.533 316.127C573.459 316.967 573.386 317.643 573.342 318.194C573.342 318.437 573.303 318.679 573.225 318.91C573.193 318.673 573.193 318.432 573.225 318.194C573.225 317.629 573.225 316.954 573.225 316.113C573.225 314.322 573.342 311.717 573.371 308.507C573.474 302.085 573.371 293.197 573.107 283.386C572.843 273.574 572.344 264.714 571.947 258.306C571.742 255.164 571.58 252.601 571.448 250.699C571.448 249.873 571.375 249.184 571.346 248.632C571.331 248.388 571.346 248.143 571.39 247.902Z" fill="#263238"/>
<path d="M546.962 227.659C546.395 228.955 545.938 230.292 545.597 231.656C545.491 233.032 545.491 234.413 545.597 235.79C545.165 235.159 544.874 234.453 544.743 233.714C544.612 232.975 544.643 232.218 544.834 231.49C544.9 230.751 545.123 230.032 545.488 229.374C545.853 228.717 546.354 228.134 546.962 227.659Z" fill="#263238"/>
<path d="M556.739 229.768C556.812 229.768 557.165 230.153 557.458 230.953C557.815 232.018 557.881 233.15 557.65 234.246C557.419 235.341 556.899 236.365 556.137 237.223C555.55 237.856 555.051 238.118 554.992 238.049C555.845 236.838 556.489 235.508 556.9 234.108C557.079 232.662 557.025 231.199 556.739 229.768Z" fill="#263238"/>
<path d="M566.266 232.248C566.34 232.248 566.736 232.579 567.088 233.35C567.546 234.377 567.689 235.503 567.499 236.602C567.31 237.7 566.796 238.727 566.017 239.565C565.415 240.199 564.916 240.433 564.857 240.364C565.859 239.262 566.524 237.925 566.783 236.496C567.041 235.067 566.883 233.599 566.325 232.248H566.266Z" fill="#263238"/>
<path d="M561.304 254.117C558.133 245.325 550.441 237.65 540.752 235.845C531.064 234.039 521.962 235.969 515.048 243.534L506.24 261.103C510.145 259.064 516.398 247.144 523.68 243.093C530.961 239.042 539.064 238.959 545.054 244.595C549.458 248.729 552.761 254.737 552.658 260.635C552.452 272.183 547.329 283.014 543.6 294.038C538.815 308.176 535.027 323.251 523.973 333.876C515.092 342.405 503.201 347.49 491.677 352.382C488.947 354.49 482.634 362.152 485.893 363.406C489.152 364.66 500.999 360.65 504.361 359.672C512.743 357.274 521.448 354.697 527.849 349.047C533.721 343.797 536.98 336.48 540.033 329.397C545.905 315.727 549.751 301.479 555.638 287.795C560.629 276.151 565.591 266.023 561.304 254.117Z" fill="#455A64"/>
<path d="M547.902 401.246L541.208 390.635L518.806 397.966C518.806 397.966 520.274 416.652 523.21 417.189C524.092 417.333 524.997 417.294 525.862 417.075C526.727 416.856 527.53 416.462 528.216 415.922C528.216 415.922 529.889 420.8 533.236 421.006L535.101 421.089C535.703 421.53 539.108 423.845 541.927 422.991C541.927 422.991 544.511 428.255 546.595 427.704C548.68 427.152 550.03 420.814 550.03 420.814L547.902 401.246Z" fill="#FFBE9D"/>
<path d="M527.673 240.557C523.85 241.813 520.438 243.975 517.768 246.834C515.098 249.693 513.261 253.151 512.435 256.873C508.031 276.675 497.52 328.529 497.946 335.832C498.489 345.12 517.353 400.157 517.353 400.157L543.777 392.689L531.783 330.679C531.783 330.679 550.5 272.665 551.968 263.846C553.583 254.213 544.628 235.045 527.673 240.557Z" fill="#ECEFF1"/>
<path d="M527.673 240.599C528.342 240.349 529.029 240.142 529.728 239.979C531.765 239.456 533.898 239.353 535.981 239.675C539.341 240.262 542.407 241.858 544.716 244.223C549.599 249.336 552.329 255.945 552.394 262.812C552.364 264.172 552.182 265.525 551.851 266.85C551.557 268.228 551.19 269.606 550.838 270.984C549.37 276.496 547.549 282.462 545.612 288.773C541.721 301.396 537.2 315.52 532.179 330.775V330.623L544.202 392.633V392.95L543.879 393.047L531.489 396.533L517.397 400.516L517.03 400.612L516.927 400.281C513.007 388.995 509.308 377.971 505.902 367.306C504.214 361.973 502.57 356.736 501.087 351.569C500.353 348.992 499.619 346.443 498.988 343.894C498.65 342.626 498.371 341.344 498.107 340.076C497.86 338.806 497.708 337.522 497.652 336.232C497.725 333.703 497.965 331.181 498.371 328.68C498.738 326.228 499.105 323.816 499.516 321.432C500.309 316.678 501.175 312.089 502.012 307.652C503.7 298.778 505.374 290.551 506.915 283.069L511.158 262.895C511.66 260.106 512.326 257.346 513.154 254.627C513.972 252.383 515.14 250.266 516.619 248.343C518.665 245.682 521.318 243.484 524.384 241.908C525.437 241.342 526.548 240.881 527.702 240.53C527.702 240.53 527.423 240.668 526.865 240.888C526.038 241.21 525.233 241.583 524.458 242.004C521.45 243.61 518.854 245.816 516.853 248.467C515.413 250.379 514.275 252.477 513.477 254.696C512.688 257.392 512.046 260.124 511.554 262.881C510.335 268.82 508.956 275.586 507.414 283.069C505.873 290.551 504.273 298.805 502.614 307.666C501.792 312.103 500.955 316.692 500.162 321.446C499.751 323.816 499.384 326.228 499.032 328.68C498.647 331.146 498.417 333.631 498.342 336.122C498.435 337.382 498.621 338.634 498.9 339.87C499.149 341.137 499.443 342.391 499.781 343.659C500.397 346.195 501.146 348.744 501.88 351.307C503.348 356.461 505.021 361.697 506.71 367.016C510.13 377.668 513.829 388.692 517.749 399.978L517.279 399.744L531.372 395.775L543.762 392.275L543.498 392.688C539.24 370.64 535.203 349.654 531.533 330.678V330.596V330.513C536.569 315.259 541.134 301.162 545.068 288.553C547.021 282.256 548.841 276.33 550.353 270.804C551.18 268.19 551.716 265.502 551.953 262.784C551.9 256.015 549.253 249.49 544.496 244.402C542.242 242.064 539.246 240.469 535.952 239.855C533.895 239.513 531.784 239.583 529.757 240.061C529.236 240.162 528.721 240.291 528.216 240.447C528.038 240.507 527.856 240.557 527.673 240.599Z" fill="#263238"/>
<path d="M532.106 330.348C527.905 327.511 522.893 325.922 517.72 325.787C520.332 325.381 523.011 325.585 525.52 326.381C528.028 327.176 530.29 328.539 532.106 330.348Z" fill="#263238"/>
<g opacity="0.3">
<path d="M510.967 382.795C498.65 365.652 492.176 341.689 499.223 324.643C497.3 334.854 499.135 344.183 502.379 354.091C505.623 363.999 509.499 373.879 510.13 384.228" fill="#333333"/>
</g>
<path d="M473.063 626.949L436.598 590.831L406.709 592.416L385.541 600.271L372.109 626.949" fill="#F5F5F5"/>
<path d="M406.709 592.416L437.67 626.949H473.063L436.598 590.831L406.709 592.416Z" fill="#E0E0E0"/>
<path d="M372.109 626.99C372.158 626.814 372.227 626.643 372.314 626.48L372.975 625.033C373.621 623.724 374.443 621.905 375.617 619.604L385.247 600.188V600.078H385.379L406.519 592.168H406.636L420.993 591.396L436.539 590.583H436.715L436.833 590.707L462.816 616.614L470.362 624.248C471.199 625.102 471.83 625.791 472.358 626.315C472.609 626.538 472.831 626.787 473.019 627.059C472.756 626.853 472.506 626.632 472.27 626.398L470.171 624.413L462.464 616.917C455.887 610.468 446.756 601.483 436.29 591.19L436.583 591.3L421.037 592.127L406.68 592.871H406.797L385.614 600.67L385.776 600.519C381.709 608.497 378.318 615.139 375.911 619.811L373.107 625.171L372.358 626.549C372.291 626.703 372.207 626.851 372.109 626.99Z" fill="#263238"/>
<path d="M207.399 626.949L221.316 604.267L246.697 597.625L270.435 616.572V626.949" fill="#EBEBEB"/>
<path d="M221.316 604.267L270.435 616.572L246.697 597.625L221.316 604.267Z" fill="#E0E0E0"/>
<path d="M270.435 626.99C270.38 626.755 270.355 626.514 270.362 626.273C270.362 625.75 270.362 625.075 270.362 624.248C270.362 622.374 270.362 619.811 270.259 616.614L270.332 616.779L246.507 597.928L246.859 597.997L241.016 599.43L221.404 604.529L221.609 604.377L211.392 620.734C210.159 622.663 209.175 624.206 208.456 625.336L207.663 626.549C207.572 626.689 207.468 626.823 207.355 626.949C207.403 626.79 207.472 626.637 207.56 626.494L208.265 625.24L211.04 620.541L220.963 604.115V603.991H221.11L240.752 598.782L246.536 597.28H246.727L246.874 597.404L270.538 616.448L270.626 616.517V616.627C270.626 619.824 270.538 622.387 270.508 624.261C270.508 625.088 270.508 625.764 270.508 626.287C270.514 626.523 270.489 626.759 270.435 626.99Z" fill="#263238"/>
<path d="M711.334 586.174L676.102 567.336L614.241 588.489L564.27 626.949L741.046 626.094L711.334 586.174Z" fill="#F5F5F5"/>
<path d="M564.27 626.949L627.658 592.416L711.334 586.174L674.693 565.821L614.241 588.489L564.27 626.949Z" fill="#E0E0E0"/>
<path d="M655.344 626.508L687.009 606.141L715.885 604.212L691.722 609.255L679.214 626.397L655.344 626.508Z" fill="#E0E0E0"/>
<path d="M564.27 626.99C564.27 626.99 564.27 626.907 564.49 626.783L565.165 626.218L567.837 624.096L578.025 616.145L614.02 588.282L658.06 571.47L674.326 565.297L674.502 565.228L674.663 565.324L711.363 585.994L732.826 615.043L738.771 623.173L740.239 625.336C740.419 625.576 740.586 625.825 740.738 626.081C740.738 626.081 740.533 625.86 740.166 625.378L738.536 623.283C737.068 621.395 735.057 618.681 732.444 615.249L710.762 586.311L710.864 586.394L674.164 565.793H674.487L658.236 571.98L614.108 588.723H614.196L578.025 616.393L567.749 624.206L565.18 626.26L564.461 626.783L564.27 626.99Z" fill="#263238"/>
<path d="M716.868 604.143C716.116 604.306 715.35 604.403 714.578 604.432L708.281 604.956L687.024 606.499H687.215L683.736 608.732C675.955 613.734 668.894 618.24 663.756 621.464L657.664 625.199L655.976 626.205C655.594 626.425 655.374 626.535 655.359 626.508C655.518 626.348 655.695 626.204 655.888 626.081L657.488 624.964L663.463 620.996C668.527 617.661 675.544 613.086 683.325 608.084L686.804 605.852H686.892H687.024L708.281 604.556L714.608 604.239C715.358 604.157 716.113 604.125 716.868 604.143Z" fill="#263238"/>
<path d="M877.908 607.147L856.739 599.278L821.449 605.3L804.346 626.88L888.096 626.949L877.908 607.147Z" fill="#F5F5F5"/>
<path d="M821.449 605.3C822.476 605.121 877.908 607.147 877.908 607.147L856.739 599.292L821.449 605.3Z" fill="#E0E0E0"/>
<path d="M804.361 626.88C804.427 626.726 804.516 626.583 804.626 626.453L805.506 625.268L808.912 620.817L821.185 605.107L821.258 605.011H821.39L847.653 600.491L856.681 598.948H856.784H856.886L878.026 606.858H878.143V606.954L885.483 621.423L887.45 625.447L887.949 626.508C888.014 626.631 888.063 626.76 888.096 626.894C888 626.79 887.921 626.674 887.861 626.549L887.289 625.516C886.76 624.551 886.041 623.214 885.16 621.561C883.31 618.061 880.756 613.141 877.629 607.216L877.791 607.354L856.607 599.554H856.813L847.785 601.097L821.522 605.521L821.728 605.411C816.59 611.791 812.303 617.137 809.22 620.954L805.668 625.295L804.714 626.425C804.489 626.737 804.371 626.889 804.361 626.88Z" fill="#263238"/>
<path d="M1035.09 626.99C1035.09 627.183 814.887 627.348 543.189 627.348C271.492 627.348 51.2332 627.142 51.2332 626.99C51.2332 626.838 271.433 626.632 543.189 626.632C814.945 626.632 1035.09 626.742 1035.09 626.99Z" fill="#263238"/>
</svg>
